<svg xmlns="http://www.w3.org/2000/svg" viewBox="0 0 1000 1176" width="700" height="823">
	<style>
		tspan { white-space:pre }
		.shp0 { fill: #296e04 } 
		.shp1 { fill: #174000 } 
		.shp2 { fill: #921d00 } 
		.shp3 { fill: #732a2a } 
		.shp4 { fill: #3b0000 } 
	</style>
	<g id="layer1">
		<path id="path4163" class="shp0" d="M497.64,37.88c22.21,1.85 47.3,14.08 60.53,36.35c13.65,27.86 28.2,17.59 51.84,6.76c53.16,-17.9 104.23,19.91 134.36,60.76c45.24,-1.84 112.73,-5.09 138.75,34.99c30.98,31.35 -23.76,100.13 25.06,110.49c42.33,29.95 46.37,90.05 31.28,133.32c19.55,47.96 21.86,115.38 -14.93,155.66c-27.38,28.38 -38.27,98.33 -90.08,98.75c-35.26,6.22 -55.43,32.99 -96.04,27.98c-41.08,-6.02 -75.33,-23.43 -112.52,5.89c-31.18,13.93 -69.06,0.03 -83.5,-36.55c-17.18,1.05 -52.78,3.01 -69.96,4.06c-31.72,6.88 -48.14,38.85 -81.21,44.83c-41.06,21.85 -53.79,-46.69 -85.2,-39.69c-46.37,18.78 -99.99,12.25 -135.72,-12.84c-44.72,-8.17 -65.73,-66.79 -50.7,-111.66c-36.28,-13.22 -83.47,-44.18 -82.74,-84.04c-3.88,-33.09 26.65,-60.53 44.13,-76.21c1.61,-8.34 -10.04,-27.14 -14.36,-36.45c-12.96,-50.57 51.04,-67.35 58.62,-103.44c2.5,-38.41 17.21,-88.92 62.5,-92.92c40.91,6.39 74.12,-6.56 91.66,-45.52c22.43,-35.37 68.77,-51.2 107.28,-32.7c30.23,-10.46 68.96,-57.62 110.93,-47.84zM488.72,55.06c-36.18,-3.19 -72.94,14.12 -93.09,45.46c-28.51,-15.76 -59.84,-11.11 -84.02,16.27c-22.28,19.57 -39.37,44.42 -68.92,54.09c-35.42,1.67 -81.68,3.05 -90.03,50.72c-14.13,27.59 4.94,71.17 -36.53,78.59c-36.11,19.17 -38.31,65.28 -22.65,98.65c-27.34,30.23 -42.39,79.45 -17.02,115.39c5.29,20.66 29.16,18.5 41.46,29.15c0.98,0.85 11.54,-24.8 22.41,-35.35c16.56,-16.07 41.45,-35.78 48.8,-40.85c11.06,-7.64 82.75,-26.68 85.27,-16.53c-3.06,5.55 -53.05,17.14 -59.16,19.77c-16.21,6.98 -56.43,33.19 -70.78,54.87c-9.01,13.62 -15.65,37.62 -16.38,39.64c-16,44.28 24.72,75.08 64.14,80.03c23.64,28.85 64.71,39.38 100.61,26.84c2.74,-2.09 -21.23,-6.84 -28.69,-17.79c-12.99,-19.08 -23.26,-75.76 -15.84,-76.29c7.39,-0.54 16.66,48.1 30.99,62.14c20.84,20.42 41.63,24.62 43.46,25.62c13.65,7.45 20.3,30.81 36.16,38.03c39.12,6.76 74.18,-20.7 107.82,-37.09c23.31,-3.64 47.83,-3.18 71.6,-5.27c17.47,13.4 37.89,40.69 72.03,19.13c29.48,-5.5 57.76,-39.34 87.48,-14.63c36.54,19.35 98.31,32.36 123.04,-0.25c32.37,-6.76 50.65,-30.14 58.66,-63.85c0.35,-1.47 -35.52,24.85 -55.93,16.78c-32.46,-12.85 -100.47,-72.12 -85.34,-80.13c8.72,8.33 50.99,54.92 84.85,62.74c16.54,3.82 62.13,-18.35 66.82,-23.67c27.93,-29.34 54.55,-65.5 44.63,-107.59c-17.68,-34.25 -18.5,-69.7 -11.68,-104.96c5.43,-39 0.45,-70.24 -37.2,-76.95c-0.91,-0.08 -11.19,47.21 -47.47,63.89c-38.18,17.56 -129.16,-13.83 -135.28,-66.51c26.73,36.65 90,66.36 127.99,47.55c22.4,-11.09 43.09,-48.01 42.1,-55.46c-2.33,-17.6 10.17,-54.43 -2.09,-69.21c-8.55,-53.6 -75.1,-52.37 -124.11,-48.5c-28.94,-0.67 -43.02,-41.23 -73.06,-48.83c-36.54,-22.82 -76.93,-25.64 -107.27,0.04c-4.03,-34.71 -23.97,-45.05 -56.55,-46.32z" />
		<path id="path4172" class="shp1" d="M312.23,160.89c17.49,27.63 42.35,3.57 80.08,33.16c84.6,66.35 72.95,35.55 148.2,-23.95c30.71,-24.28 22.09,-24.87 24.85,-33.16c-4.51,0.52 -19.31,9.7 -36.48,26.1c-18.51,17.67 -40.53,42.7 -76.9,44.21c-17.08,0.71 -46.98,-19.54 -75.92,-32.06c-31.33,-13.55 -61.22,-19.31 -63.82,-14.3z" />
		<path id="path4203" class="shp1" d="M651.5,346.32c-15.21,20.77 -24.82,46.98 -43.92,57.15c-21.46,11.42 -52.19,10.23 -75.83,1.77l-2.9,0.38l-1.17,2.7c-19.69,46 -55.55,68.63 -90.91,67.37c-35.36,-1.27 -72.06,-20.39 -93.89,-45.01c-20.03,-16.24 -17.67,-14.71 -8.36,3.59c23.84,26.88 63.12,50.35 101.87,51.73c37.96,1.36 82.41,-17.5 103.78,-64.52c31,9.9 57.85,7.9 81.58,-6.03c18.03,-10.58 24.21,-49.14 38.71,-68.92c8.31,-12.44 18.12,-25.98 7.96,-24.97z" />
		<path id="path4222-3" class="shp2" d="M465.78,1115.72c20.46,17.76 23.03,4.19 30.59,-0.65l14.32,-22.14c8.98,-1.12 11.65,-10.65 29.94,0.65l14.32,22.14c3.04,7.19 3.04,16.99 17.57,14.33c11.05,-9.56 15.62,-19.11 16.27,-28.66l9.11,-16.28l55.32,34.52c19.55,1.62 14.99,-11.84 7.16,-27.35l-35.8,-28.66c-30.93,-14.21 -54.23,-27.9 -59.23,-40.38c-7.86,-42.05 -16.3,-83.23 -20.83,-130.26c-2.31,-69.7 -12.09,-128.94 -6.51,-209.71c22.1,-13.89 14.81,-27.79 82.01,-41.68c29.66,-11.94 52.58,-17.04 87.22,-45.59c14.32,-13.25 15.61,-26.49 20.18,-39.73l-15.62,-8.47c-11.31,24.02 -26.25,45.25 -59.88,52.1l-76.8,24.75c-30.17,11.87 -33.35,1.65 -46.21,-0.65c-6.96,-11.47 -13.16,-24.72 -14.97,-48.2c5.45,-41.67 -5.39,-21.73 -13.02,-14.33v39.73l-9.11,16.93c-8.06,14.28 -18.07,22.08 -36.45,1.95c-23.78,-13.87 -30.26,-39.29 -39.05,-63.17l-21.48,9.12l5.21,36.47c-6.66,5.31 -65.33,4.6 -103.49,-52.1c-6.38,-5.18 -13.36,-12.47 -13.02,5.86l4.56,19.54l26.69,23.45l141.89,74.25c20.36,36.45 17.1,92.9 15.62,147.84c2.01,71.88 -2.89,137.83 -13.02,199.29c-34.66,16.07 -66.4,43.8 -97.63,73.6l5.86,16.93c28.52,-6.68 47.81,-25.66 85.92,-19.54z" />
		<path id="path4136" class="shp3" d="M496.18,564.56c5.29,-22.82 12.68,-16.39 20.63,-5.38l0.94,14.36c-1.36,32.3 1.91,20.26 14.5,46.75c3.51,2.49 13.24,5.57 16.23,5.67c3.7,0.11 13.27,-1.36 18.48,-2.14c9.44,-1.42 22.06,-5.29 33.99,-10.05c24.21,-9.66 46.87,-12.89 64.58,-22.42c11.8,-6.39 40,-29.59 42.03,-46.17c4.37,-7.28 6.55,-3.08 17.85,1.78c5.24,6.17 8.73,8.09 1.37,17.67c-7.58,16.06 -5.27,22.95 -19.79,35.33c-14.52,12.38 -30.84,28.29 -51.53,35.11c-31.42,10.35 -60.4,19.91 -82.72,32.77c-9.83,5.66 -20.19,15.23 -26.72,20.7c-1.44,10.91 -4.6,22.5 -3.65,51.42c1,30.6 0.95,68.14 4.07,105.05c3.12,36.91 9.41,82.04 13.78,112.31c4.32,29.9 10.5,50.07 15.86,58.51c17.85,28.04 31.37,34.37 56.39,48.94c11.21,6.53 22.72,12.54 32.94,30.13c1.63,10.65 4.12,17.82 3.24,25.98c-12.01,3.37 -18.94,3.47 -22.35,1.79c-18.51,-9.13 -41.63,-26.66 -43.25,-26.46c-9.75,0.56 -8.77,4.92 -9.91,14.08c-0.91,7.36 -6.23,8.63 -9.29,14.07c-3.59,6.39 -15.64,13.69 -21.13,13.37c-5.49,-0.33 -11.17,-12.06 -14.25,-17.4c-3.54,-7.08 -0.18,-11.3 -1.34,-15.97c-3.22,-9.46 -9.58,-4.34 -21.64,-6.48c-12.95,5.21 -17.92,-2.67 -22.46,9.25c-1.72,4.72 0.85,10.82 -2.44,13.74c-3.3,2.91 -7.3,5.6 -12.04,7.39c-4.74,1.79 -10.69,2.79 -16.63,0.28c-5.95,-2.51 -17.53,-5.23 -17.16,-12.6c0.42,-8.5 -5.25,-12.68 -7.48,-16.65c-2.9,-2.66 -5.82,1.56 -14.48,-3.45c-2.43,-0.09 -3.51,4.73 -9.79,5.52c-11.33,1.44 -5.68,-1.62 -14.51,3.11c-9.94,4.73 -7,-3.66 -18.06,2.8c-3.71,6.06 -15.85,7.43 -24.29,13.69c-5.24,-1.01 -10.1,-17.75 -9.46,-24.69c0.64,-8.57 17.22,-17.44 21.6,-24.44c9.66,-9.12 14.15,-15.91 22.97,-22.01c5.12,-3.98 10.98,-9.97 23.72,-16.21c17.62,-8.98 10.66,-6.84 23.5,-20.35c2.48,-5.45 6.74,-17.4 8.46,-28.3c3.44,-21.81 4.75,-40.13 5.68,-74.87c1.66,-61.76 6.49,-195.4 -4.67,-216.1c-7.57,-14.04 -22.62,-27.67 -41.47,-34.75c-20.17,-7.58 -42.64,-22.88 -65.13,-31.43c-22.49,-8.55 -35.34,-19.3 -52.1,-31.83c-15.72,-11.75 -21.23,-23.34 -21.21,-47.64c3.92,-7.57 7.18,-13.32 20.21,2.07c10.06,15.07 11.94,18.85 31.15,31.46c9.32,5.07 29.74,19.31 49.49,19.81c23.43,0.73 13.26,-8.96 11.58,-18.25c-1.84,-10.23 1.95,3.72 1.31,-8.45l-1,-19.13c-0.54,-10.26 14.51,-14.98 22.98,-0.76c7.95,13.35 5.31,-1.11 11.04,14c7.05,18.02 17.7,34.27 34.41,48.78c7.8,4.65 12.81,5.94 14.72,5.66c1.71,-0.25 7.69,-1.03 10.41,-4.76c13.77,-10.72 13.26,-17.73 11.83,-54.19zM501.42,573.77c2.37,25.34 5.77,33.75 -9.66,55.37c-5.33,7.47 -5.64,8.2 -15.22,12.4c-8.97,1.3 -17.56,-6.83 -27.63,-13.06l-16.67,-20.83c-12.79,-15.98 -9.62,-15.71 -16.01,-36.6c-3.88,-10.02 -2.17,6.44 -5.6,-3.19c-8.03,-22.53 -13.1,-13.07 -11.18,4.09c1.14,10.17 -2.29,-5.5 -0.94,5.2c0.9,7.16 2.33,18.78 5.33,26.87c3.52,13.83 17.37,23.03 26.12,25.34c-9.05,9.43 -34.27,-18.91 -36.72,-18.47c-8.56,0.98 -23.36,-1.37 -31.82,-4.77c-20.21,-8.12 -25.96,-12.33 -36.54,-16.34c-9.66,-3.66 -23.39,-16.49 -30.93,-33c-3.99,-5.84 -6.25,-5.72 -7.19,-0.65c3.12,9.4 5.39,20.98 16.21,28.98c14.35,10.61 31.72,21.14 53.57,29.45c21.85,8.31 43.58,20.98 64.4,28.8c20.2,7.72 45.06,20.67 50.01,51.84c5.03,31.69 10.12,114.53 7.68,174.87c-1.59,39.37 0.08,88.81 -3.65,112.45c-1.87,11.82 -1.02,23.7 -4.66,31.71c-3.64,8.01 -8.44,21.27 -16.11,21.6c-15.13,2.1 -32.22,15.08 -45.27,24.58c-10.62,7.73 -22.11,19.6 -26.07,22.68c-2.6,2.7 -10.82,10.37 -12.67,16.16c-1.06,7.68 2.49,9.25 10.08,2.88c4.39,-2.62 4.38,0.67 19.01,-6.35c16.94,-8.14 10.85,-6.28 21.75,-7.67c8.41,-1.07 17.34,-3.68 22.14,-3.11c1.9,-0.05 6.92,2.2 9.96,-1.06c3.76,-4.02 8.66,-12.93 12.66,-17.71c3.83,-4.56 8.86,-0.98 16.33,-7.27c11.04,-9.3 21.25,-24.71 21.93,-23.28c0.51,0.44 -9.34,16.05 -19.43,25.67c-6.84,6.52 -14.84,7.46 -15.7,9.9c-2.85,8.01 -6.61,17.21 -6.63,18.34c-0.03,1.96 -0.61,4.19 -0.81,6.98c-0.97,7.06 3.53,9.58 3.85,11.93c0.32,2.34 7.9,2.09 9.92,9.35c2.59,5.52 4.46,7.98 13.88,-1.95c3.42,-6.49 4.48,-13.43 9.33,-21.86c8.99,-12.37 13.76,-5.86 27.55,-13.71c14.1,10.36 27.28,3.7 33.79,21.34c0.6,4.81 -5.75,22.14 6.23,23.66c11.45,-0.42 13.87,-7.45 15.66,-13.54c3.04,-10.29 0.35,-13.57 2.34,-19.93c1.29,-4.11 2.12,-6.52 -2.59,-10.54c-4.94,-4.21 -5.08,-7.56 -8.76,-11.37c-6.61,-6.83 -25.34,-10.88 -24.12,-13.49c1.7,-3.65 21.54,7.25 27.59,9.94c5.62,2.49 14.41,9 15.2,9.33c7.89,3.27 13.47,6.13 20.01,12.49c3.65,3.54 13.65,13.05 20.42,16.28c11.99,5.72 26.31,21.15 30.1,7.39c1.01,-11.23 -12.83,-27.34 -22.29,-32.75c-23.26,-13.31 -63.35,-27.3 -75.28,-41.19c-7.14,-8.32 -12.57,-24.71 -16.43,-34.58c-5.04,-12.89 -2.18,-24.08 -5.8,-49.13c-4.45,-30.8 -4.53,-62.71 -7.67,-99.9c-3.14,-37.19 -5.43,-75.73 -6.44,-106.76c-1.01,-31.03 -0.94,-55.88 1.35,-69.6c2.46,-5.75 5.58,-5.68 15.27,-16.35c25.71,-23.22 66.11,-19.71 104.28,-37.91c19.08,-9.1 41.6,-20.24 54.06,-30.58c15.34,-12.74 18.31,-30.35 21.29,-38.61c-5.89,-1.09 -12.95,-7.45 -15.6,6.04c-2.39,4.5 -5.97,13.31 -10.07,16.94c-6.54,5.81 -23.3,18.21 -32.89,23.36c-19.16,10.31 -35.67,12.3 -59.94,21.98c-6.82,2.72 -25.94,5.85 -38.5,12.07c-6.28,3.11 -16.66,4.92 -24.56,4.67c-7.9,-0.24 -10.98,1.07 -18.31,-5.37l-2.19,-1.93l-0.66,-2.84c-8.08,-32.72 -12.23,-30.16 -11.48,-61.2c-2.88,-9.14 -5.76,-7.94 -8.64,5.5zM501.42,573.77z" />
		<path id="path4178" class="shp4" d="M505.21,671.91c-10.96,10.06 -19.58,26.97 -21.55,41.72c-1.02,7.69 8.59,17.59 9.02,29.59c0.6,16.91 -10.79,32.36 -6.52,48.74c3.11,11.94 9.64,25.16 9.81,36.87c0.1,6.99 -1.52,22.76 -10.05,36.27c4.15,3.01 15.15,-21.83 16.29,-33.35c0.85,-12.14 -10.22,-31.05 -10.91,-43.2c-0.96,-16.82 8.13,-32.23 8.21,-42.78c0.09,-10.93 -11.07,-23.85 -9.58,-34.67c1.67,-12.15 10.21,-23.71 17.79,-33.35c6.41,-8.14 27.15,-15.41 25.09,-18.67c0,0 -20.13,5.97 -27.61,12.83z" />
		<path id="path4178-4" class="shp4" d="M524.76,926.46c6.97,-10 11.08,-25.31 10.36,-37.82c-0.38,-6.52 -9.33,-13.24 -11.48,-23.12c-3.04,-13.91 3.44,-28.43 -2.35,-41.33c-4.23,-9.41 -11.29,-19.35 -13.2,-29.02c-1.15,-5.77 -2.28,-19.07 2.28,-31.55c-3.67,-1.86 -8.42,20.38 -7.56,30.09c1.18,10.18 12.63,24.14 15.02,34.09c3.3,13.78 -1.4,27.91 0.14,36.66c1.59,9.06 12.2,18.05 12.69,27.23c0.55,10.31 -4.31,21.19 -8.72,30.32c-3.73,7.71 -18.7,16.9 -16.61,19.28c0,0 14.69,-8.02 19.44,-14.84z" />
		<path id="path4178-48" class="shp4" d="M447.42,1051.18c12.18,-5.25 39.55,-13.3 43.48,-23.19c2.05,-5.15 -6.1,-13.5 -4.9,-21.87c1.69,-11.79 15.03,-20.7 13.03,-32.69c-1.46,-8.74 -6.11,-18.9 -4.7,-27.02c0.84,-4.85 4.59,-15.51 14.83,-23.51c-3.69,-2.73 -17.91,12.74 -20.59,20.52c-2.48,8.26 5.89,23.06 4.92,31.57c-1.33,11.78 -12.38,21.02 -13.89,28.31c-1.56,7.54 7.7,18.22 4.77,25.47c-3.3,8.14 -29.85,12.51 -38.65,17.99c-7.42,4.63 -44.54,30.38 -42.94,32.95c0,0 36.33,-24.95 44.64,-28.52z" />
		<path id="path4178-8" class="shp4" d="M502.23,997.57c-5.02,10.79 -4.83,24.17 0.23,33.14c2.64,4.68 15.66,5.4 21.57,11.72c8.32,8.91 5.4,22.83 16.7,29.67c8.24,4.98 20.07,9 25.61,15.29c3.31,3.75 9.14,13.12 7.84,24.6c5.04,-0.38 3.29,-19.23 -1,-26.04c-4.84,-7.01 -23.29,-11.93 -29.5,-18.2c-8.59,-8.68 -7.68,-21.47 -12.46,-27.25c-4.95,-5.98 -20.73,-7.59 -24.4,-14.2c-4.12,-7.42 -1.92,-17.85 0.32,-26.77c1.9,-7.53 16.82,-21.56 13.5,-22.33c0,0 -14.97,13.02 -18.4,20.38z" />
		<path id="path4174" class="shp1" d="M341.04,482c-8.14,-16.1 -23.29,-22.41 -7.79,6.77c0,0 9.56,69.17 39.32,81.57c29.15,12.14 73.54,-33.8 105.07,-32.03c40.6,2.27 67.95,81.48 101.83,62.72c29.62,-16.4 93.14,-63.21 93.14,-63.21c23.39,-14.14 25.87,-23.89 -6.51,-9.94c0,0 -58.32,54.23 -101.12,48.84c-26.8,-3.37 -58.75,-42.52 -85,-48.87c-28.74,-6.95 -59.93,23.6 -87.67,13.37c-24.49,-9.03 -51.26,-59.23 -51.26,-59.23z" />
	</g>
</svg>