<?xml version="1.0" encoding="utf-8"?>
<!-- Generator: Adobe Illustrator 15.0.2, SVG Export Plug-In . SVG Version: 6.00 Build 0)  -->
<!DOCTYPE svg PUBLIC "-//W3C//DTD SVG 1.1//EN" "http://www.w3.org/Graphics/SVG/1.1/DTD/svg11.dtd">
<svg version="1.1" id="layer_1" xmlns="http://www.w3.org/2000/svg" xmlns:xlink="http://www.w3.org/1999/xlink" x="0px" y="0px"
	 width="500px" height="500px" viewBox="0 0 500 500" style="enable-background:new 0 0 500 500;" xml:space="preserve">
<style type="text/css">
<![CDATA[
	.st0{fill:#1A171B;}
	.st1{fill:#54C0F1;}
	.st2{font-family:'Arial-BoldMT';}
	.st3{clip-path:url(#SVGID_2_);}
	.st4{fill:#FF625D;}
	.st5{fill:#CCCCCC;}
	.st6{clip-path:url(#SVGID_2_);fill:#FFFFFF;}
	.st7{font-family:'ArialMT';}
	.st8{font-size:10;}
	.st9{font-size:15;}
	.st10{font-size:28;}
]]>
</style>
<g>
	<defs>
		<rect id="SVGID_1_" width="500" height="500"/>
	</defs>
	<clipPath id="SVGID_2_">
		<use xlink:href="#SVGID_1_"  style="overflow:visible;"/>
	</clipPath>
	<rect class="st6" width="500" height="500"/>
	<g class="st3">
		<text transform="matrix(1 0 0 1 36.2715 223.7617)" class="st7 st8">LEADERSHIP</text>
		<text transform="matrix(1 0 0 1 164.0605 223.7627)" class="st7 st8">TRAINING</text>
		<text transform="matrix(1 0 0 1 294.0605 223.7627)" class="st7 st8">TEAM</text>
		<text transform="matrix(1 0 0 1 384.3359 223.7627)" class="st7 st8">BRAIN STORMING</text>
		<text transform="matrix(1 0 0 1 167.1113 463.8516)" class="st7 st8">CAREER</text>
		<text transform="matrix(1 0 0 1 35.4395 463.8516)" class="st7 st8">KEY PERSON</text>
		<text transform="matrix(1 0 0 1 32.3877 343.7871)" class="st7 st8">PARTNERSHIP</text>
		<text transform="matrix(1 0 0 1 150.1641 343.7871)" class="st7 st8">DEVELOPMENT</text>
		<text transform="matrix(1 0 0 1 290.9951 343.7871)" class="st7 st8">SKILLS</text>
		<text transform="matrix(1 0 0 1 391.8359 343.7871)" class="st7 st8">OPPORTUNITY</text>
		<text transform="matrix(1 0 0 1 269.124 463.8516)" class="st7 st8">HEAD HUNTING</text>
		<text transform="matrix(1 0 0 1 380.4375 463.8516)" class="st7 st8">EMPLOYEE WAGES</text>
	</g>
	<g class="st3">
		<g>
			<g>
				<path class="st1" d="M79.3,154.2c0-1.8-0.3-3.5-0.9-4.8c-1.7-0.1-4,0.1-6.7,0.7c-7.4,1.8-13.1,0.4-14.3,0.1
					c-0.4,1.2-0.6,2.5-0.6,4c0,4.8,2.2,9.1,5.5,11.4l-0.5,2.9c-0.4,1.6-1.5,2.9-2.9,3.5l9.2,3.7l9.2-3.7c-1.4-0.6-2.5-1.9-2.9-3.5
					l-0.5-2.9C77.1,163.2,79.3,159,79.3,154.2z"/>
				<circle class="st1" cx="96.4" cy="147.1" r="2.9"/>
				<circle class="st1" cx="96.4" cy="161.8" r="2.9"/>
			</g>
			<g>
				<circle class="st4" cx="48.4" cy="140.8" r="2.9"/>
				<polygon class="st4" points="60.4,179.4 68,175.6 58.8,172 				"/>
				<polygon class="st4" points="68,175.6 75.6,179.4 77.3,172 				"/>
			</g>
			<g>
				<path class="st0" d="M97.1,158.2v-7.5c1.7-0.3,2.9-1.8,2.9-3.6c0-2-1.6-3.7-3.7-3.7c-2,0-3.7,1.6-3.7,3.7c0,1.8,1.3,3.2,2.9,3.6
					v3H82.2c-0.4,0-0.7,0.3-0.7,0.7s0.3,0.7,0.7,0.7h13.4v3c-1.7,0.3-2.9,1.8-2.9,3.6c0,2,1.6,3.7,3.7,3.7c2,0,3.7-1.6,3.7-3.7
					C100,160,98.8,158.5,97.1,158.2z M94.2,147.1c0-1.2,1-2.2,2.2-2.2c1.2,0,2.2,1,2.2,2.2s-1,2.2-2.2,2.2
					C95.1,149.3,94.2,148.4,94.2,147.1z M96.4,164c-1.2,0-2.2-1-2.2-2.2c0-1.2,1-2.2,2.2-2.2c1.2,0,2.2,1,2.2,2.2
					C98.6,163,97.6,164,96.4,164z"/>
				<path class="st0" d="M73.1,141.8c0.4,0,0.7-0.3,0.7-0.7v-3.9h12.7c0.4,0,0.7-0.3,0.7-0.7s-0.3-0.7-0.7-0.7H73.1
					c-0.4,0-0.7,0.3-0.7,0.7v4.7C72.4,141.5,72.7,141.8,73.1,141.8z"/>
				<path class="st0" d="M44.8,140.8c0,1.8,1.3,3.3,2.9,3.6v5.7c0,0.4,0.3,0.7,0.7,0.7h6.4c0.4,0,0.7-0.3,0.7-0.7
					c0-0.4-0.3-0.7-0.7-0.7h-5.7v-5c1.7-0.3,2.9-1.8,2.9-3.6s-1.3-3.3-2.9-3.6v-4.5c1.4-0.3,2.6-1.4,2.9-2.9h6.2
					c0.4,0,0.7-0.3,0.7-0.7s-0.3-0.7-0.7-0.7H52c-0.3-1.7-1.8-2.9-3.6-2.9c-2,0-3.7,1.6-3.7,3.7c0,1.8,1.3,3.3,2.9,3.6v4.5
					C46,137.5,44.8,139,44.8,140.8z M46.2,129c0-1.2,1-2.2,2.2-2.2c1.2,0,2.2,1,2.2,2.2s-1,2.2-2.2,2.2
					C47.2,131.2,46.2,130.2,46.2,129z M48.4,138.6c1.2,0,2.2,1,2.2,2.2s-1,2.2-2.2,2.2c-1.2,0-2.2-1-2.2-2.2S47.2,138.6,48.4,138.6z
					"/>
				<path class="st0" d="M55.6,157.2c0-0.4-0.3-0.7-0.7-0.7H39.7c-0.4,0-0.7,0.3-0.7,0.7v6.4c0,0.4,0.3,0.7,0.7,0.7
					c0.4,0,0.7-0.3,0.7-0.7v-5.6h14.4C55.2,157.9,55.6,157.6,55.6,157.2z"/>
				<path class="st0" d="M81.7,180.8c-0.4,0-0.7,0.3-0.7,0.7v7.1c0,0.4,0.3,0.7,0.7,0.7s0.7-0.3,0.7-0.7v-7.1
					C82.4,181.1,82.1,180.8,81.7,180.8z"/>
				<path class="st0" d="M54.3,180.8c-0.4,0-0.7,0.3-0.7,0.7v7.1c0,0.4,0.3,0.7,0.7,0.7s0.7-0.3,0.7-0.7v-7.1
					C55.1,181.1,54.7,180.8,54.3,180.8z"/>
				<path class="st0" d="M85.1,172.7l-6.5-1.1c-1.7-0.3-3.2-1.6-3.6-3.3l-0.6-2.3c3.3-2.5,5.6-6.8,5.6-11.8c0-7.1-4.8-11.9-12-11.9
					s-12,4.8-12,11.9c0,5,2.2,9.3,5.6,11.8l-0.6,2.3c-0.4,1.7-1.8,3-3.6,3.3l-6.5,1.1c-4.1,0.7-7.1,4.3-7.1,8.4v7.5
					c0,0.4,0.3,0.7,0.7,0.7c0.4,0,0.7-0.3,0.7-0.7v-7.5c0-3.5,2.5-6.4,5.9-7l6.5-1.1c0.2,0,0.4-0.1,0.6-0.1l1.5,6.6
					c0,0.2,0.2,0.4,0.4,0.5c0.1,0,0.2,0.1,0.3,0.1c0.1,0,0.2,0,0.3-0.1l2.7-1.3l1.7,2.9l-1.7,6.8c-0.1,0.4,0.1,0.8,0.5,0.9
					c0.1,0,0.1,0,0.2,0c0.3,0,0.6-0.2,0.7-0.6l1.6-6.6h3.2l1.6,6.6c0.1,0.4,0.5,0.6,0.9,0.5c0.4-0.1,0.6-0.5,0.5-0.9l-1.7-6.8
					l1.7-2.9l2.7,1.3c0.1,0.1,0.2,0.1,0.3,0.1c0.1,0,0.2,0,0.3-0.1c0.2-0.1,0.4-0.3,0.4-0.5l1.5-6.6c0.2,0.1,0.4,0.1,0.6,0.1
					l6.5,1.1c3.4,0.6,5.9,3.5,5.9,7v7.5c0,0.4,0.3,0.7,0.7,0.7s0.7-0.3,0.7-0.7v-7.5C92.2,177,89.2,173.4,85.1,172.7z M68,143.7
					c4.2,0,7.5,1.8,9.2,4.9c-1.7,0-3.7,0.3-5.6,0.8c-6.2,1.5-11.2,0.7-13.2,0.3C59.9,145.9,63.3,143.7,68,143.7z M57.5,154.2
					c0-1.1,0.1-2.2,0.4-3.1c2.1,0.5,7.4,1.4,14-0.3c2.1-0.5,4.2-0.8,5.9-0.7c0.4,1.2,0.7,2.6,0.7,4.1c0,6.9-4.7,12.5-10.5,12.5
					S57.5,161.1,57.5,154.2z M62.5,168.6l0.5-1.8c1.6,0.9,3.3,1.4,5.1,1.4c1.8,0,3.6-0.5,5.1-1.4l0.5,1.8c0.3,1.3,1.1,2.4,2,3.2
					l-7.6,3l-7.6-3C61.4,171,62.1,169.9,62.5,168.6z M61,178.3l-1.1-5.2l6.4,2.6L61,178.3z M69.8,180.8h-3.5l-1.6-2.7l3.3-1.6
					l3.3,1.6L69.8,180.8z M75.1,178.3l-5.3-2.6l6.4-2.6L75.1,178.3z"/>
				<path class="st0" d="M96.4,167.9c-0.4,0-0.7,0.3-0.7,0.7v10.1c0,0.4,0.3,0.7,0.7,0.7c0.4,0,0.7-0.3,0.7-0.7v-10.1
					C97.1,168.2,96.8,167.9,96.4,167.9z"/>
				<path class="st0" d="M96.4,181.9c-0.4,0-0.7,0.3-0.7,0.7v3c0,0.4,0.3,0.7,0.7,0.7c0.4,0,0.7-0.3,0.7-0.7v-3
					C97.1,182.3,96.8,181.9,96.4,181.9z"/>
				<path class="st0" d="M39.7,179.8c-0.4,0-0.7,0.3-0.7,0.7v8.2c0,0.4,0.3,0.7,0.7,0.7c0.4,0,0.7-0.3,0.7-0.7v-8.2
					C40.4,180.1,40.1,179.8,39.7,179.8z"/>
				<path class="st0" d="M39.7,172.6c-0.4,0-0.7,0.3-0.7,0.7v3.3c0,0.4,0.3,0.7,0.7,0.7c0.4,0,0.7-0.3,0.7-0.7v-3.3
					C40.4,172.9,40.1,172.6,39.7,172.6z"/>
			</g>
			<g>
				<path class="st1" d="M39.7,162.8c-2,0-3.7,1.6-3.7,3.7s1.6,3.7,3.7,3.7c2,0,3.7-1.6,3.7-3.7S41.7,162.8,39.7,162.8z"/>
				<path class="st1" d="M61.1,125.4c-2,0-3.7,1.6-3.7,3.7s1.6,3.7,3.7,3.7s3.7-1.6,3.7-3.7S63.2,125.4,61.1,125.4z"/>
			</g>
			<path class="st4" d="M89.5,132.7c-2,0-3.7,1.6-3.7,3.7s1.6,3.7,3.7,3.7c2,0,3.7-1.6,3.7-3.7S91.5,132.7,89.5,132.7z"/>
		</g>
		<g>
			<g>
				<path class="st4" d="M161.5,185.3c0,1.8,1.5,3.3,3.3,3.3s3.3-1.5,3.3-3.3c0,1.8,1.5,3.3,3.3,3.3s3.3-1.5,3.3-3.3v-21.1h-13.4
					V185.3z"/>
				<path class="st4" d="M209.7,144.7l-5.2-1.4c-0.3,1-1.2,1.8-2.4,1.8c-0.5,0-0.9-0.1-1.3-0.4l-3,4.4l-5.2-1.6
					c-0.3,1-1.2,1.7-2.3,1.7c-0.8,0-1.5-0.4-1.9-0.9l-5.7,4.6v9.9l4.9-2.7c-0.2-0.3-0.3-0.7-0.3-1.2c0-1.3,1.1-2.4,2.4-2.4
					s2.4,1.1,2.4,2.4c0,0.2,0,0.4-0.1,0.7l5.3,1.5l4.1-3.6c-0.4-0.4-0.6-1-0.6-1.6c0-1.3,1.1-2.4,2.4-2.4s2.4,1.1,2.4,2.4
					c0,0.1,0,0.3,0,0.4l4.8,0.8l5.4-5.8l0-16.6L209.7,144.7z"/>
			</g>
			<g>
				<path class="st1" d="M215.8,151.2l-5.4,5.8l-4.8-0.8c-0.2,1.2-1.2,2-2.4,2c-0.7,0-1.4-0.3-1.8-0.8l-4.1,3.6l-5.3-1.5
					c-0.3,1-1.2,1.8-2.3,1.8c-0.9,0-1.7-0.5-2.1-1.3l-4.9,2.7v4.4h33.2L215.8,151.2z"/>
				<ellipse class="st1" cx="168.2" cy="135.6" rx="4.6" ry="4.9"/>
				<path class="st1" d="M190.6,134.5c1-1,1-2.7,0-3.7c-1-1-2.7-1-3.7,0l-2,2l3.7,3.7L190.6,134.5z"/>
			</g>
			<g>
				<path class="st0" d="M195.4,131.7h4.7c0.4,0,0.7-0.3,0.7-0.7c0-0.4-0.3-0.7-0.7-0.7h-4.7c-0.4,0-0.7,0.3-0.7,0.7
					C194.6,131.4,194.9,131.7,195.4,131.7z"/>
				<path class="st0" d="M195.4,136.6h12.5c0.4,0,0.7-0.3,0.7-0.7s-0.3-0.7-0.7-0.7h-12.5c-0.4,0-0.7,0.3-0.7,0.7
					S194.9,136.6,195.4,136.6z"/>
				<path class="st0" d="M203.9,131.7h7.1c0.4,0,0.7-0.3,0.7-0.7c0-0.4-0.3-0.7-0.7-0.7h-7.1c-0.4,0-0.7,0.3-0.7,0.7
					C203.2,131.4,203.5,131.7,203.9,131.7z"/>
				<path class="st0" d="M218.8,166.4h-2.2v-39.6h2.2c0.4,0,0.7-0.3,0.7-0.7c0-0.4-0.3-0.7-0.7-0.7h-39.1c-0.4,0-0.7,0.3-0.7,0.7
					c0,0.4,0.3,0.7,0.7,0.7h2.2v7.9l-5.9,5.9c-0.9,0.9-2.1,1.4-3.3,1.4h-11.1c-3.3,0-6,2.7-6,6v13c0,0.4,0.3,0.7,0.7,0.7h5.3
					c0.2,0,0.4-0.1,0.5-0.2c0.1-0.1,0.2-0.3,0.2-0.5v-12c0-0.4-0.3-0.7-0.7-0.7c-0.4,0-0.7,0.3-0.7,0.7v11.3l-3.8,0V148
					c0-2.5,2-4.5,4.5-4.5h11.1c1.7,0,3.2-0.6,4.4-1.8l7.9-7.9l2.7,2.7l-11.9,11.9c-1,1-1.5,2.3-1.5,3.7v11.3h-12.7
					c-0.4,0-0.7,0.3-0.7,0.7v21.1c0,2.2,1.8,4,4.1,4c1.4,0,2.6-0.7,3.3-1.7c0.7,1,2,1.7,3.3,1.7c2.3,0,4.1-1.8,4.1-4v-33.2
					c0-1,0.4-2,1.1-2.7l5.1-5.2v22.1h-2.2c-0.4,0-0.7,0.3-0.7,0.7s0.3,0.7,0.7,0.7h13.7l-4.6,16.7c-0.1,0.4,0.1,0.8,0.5,0.9
					c0.4,0.1,0.8-0.1,0.9-0.5l2.6-9.5h12.9l2.6,9.5c0.1,0.3,0.4,0.5,0.7,0.5c0.1,0,0.1,0,0.2,0c0.4-0.1,0.6-0.5,0.5-0.9l-4.6-16.7
					h13.7c0.4,0,0.7-0.3,0.7-0.7S219.2,166.4,218.8,166.4z M174.2,185.3c0,1.4-1.2,2.6-2.6,2.6c-1.4,0-2.6-1.2-2.6-2.6V170
					c0-0.4-0.3-0.7-0.7-0.7s-0.7,0.3-0.7,0.7v15.3c0,1.4-1.2,2.6-2.6,2.6c-1.4,0-2.6-1.2-2.6-2.6v-20.4h11.9V185.3z M205.3,174
					h-12.1l1.7-6.1h8.7L205.3,174z M183.4,166.4v-3.2l3.9-2.2c0.6,0.6,1.4,1,2.3,1c1.2,0,2.2-0.7,2.8-1.6l4.6,1.3
					c0.2,0.1,0.5,0,0.7-0.2l3.7-3.2c0.5,0.4,1.1,0.6,1.8,0.6c1.3,0,2.4-0.8,2.9-1.9l4.2,0.7c0.2,0,0.5,0,0.7-0.2l4.1-4.5l0,13.3
					H183.4z M188,158.9c0-0.9,0.8-1.7,1.7-1.7c0.9,0,1.7,0.8,1.7,1.7s-0.8,1.7-1.7,1.7C188.7,160.6,188,159.8,188,158.9z
					 M201.5,155.8c0-0.9,0.8-1.7,1.7-1.7c0.9,0,1.7,0.8,1.7,1.7c0,0.9-0.8,1.7-1.7,1.7C202.3,157.5,201.5,156.7,201.5,155.8z
					 M215.1,150.9l-5,5.3l-3.8-0.7c-0.1-1.7-1.5-3-3.2-3c-1.8,0-3.2,1.4-3.2,3.2c0,0.5,0.1,1,0.4,1.5l-3.4,2.9l-4.3-1.2
					c0,0,0-0.1,0-0.1c0-1.8-1.4-3.2-3.2-3.2s-3.2,1.4-3.2,3.2c0,0.3,0.1,0.6,0.1,0.8l-3.2,1.8v-8.3l4.9-3.9c0.5,0.4,1.2,0.7,1.9,0.7
					c1.2,0,2.2-0.6,2.7-1.6l4.6,1.4c0.3,0.1,0.6,0,0.8-0.3l2.7-3.9c0.3,0.1,0.7,0.2,1.1,0.2c1.2,0,2.2-0.7,2.8-1.7l4.6,1.2
					c0.3,0.1,0.6,0,0.8-0.3l4.8-7.9V150.9z M188.5,146.8c0-0.9,0.8-1.7,1.7-1.7c0.9,0,1.7,0.8,1.7,1.7c0,0.9-0.8,1.7-1.7,1.7
					C189.3,148.5,188.5,147.7,188.5,146.8z M200.4,142.7c0-0.9,0.8-1.7,1.7-1.7c0.9,0,1.7,0.8,1.7,1.7s-0.8,1.7-1.7,1.7
					C201.2,144.4,200.4,143.6,200.4,142.7z M215.1,134.4l-5.8,9.4l-4-1.1c0,0,0-0.1,0-0.1c0-1.8-1.4-3.2-3.2-3.2
					c-1.8,0-3.2,1.4-3.2,3.2c0,0.8,0.3,1.6,0.9,2.2l-2.3,3.4l-4.1-1.3c0-0.1,0-0.1,0-0.2c0-1.8-1.4-3.2-3.2-3.2
					c-1.8,0-3.2,1.4-3.2,3.2c0,0.5,0.1,0.9,0.3,1.3l-4,3.2v-8.5l5.8-5.8c0.3-0.3,0.3-0.7,0-1l-3.7-3.7c-0.3-0.3-0.8-0.3-1,0l-1,1
					v-6.4h31.8V134.4z"/>
				<path class="st0" d="M218.8,187.9H213c-0.4,0-0.7,0.3-0.7,0.7c0,0.4,0.3,0.7,0.7,0.7h5.8c0.4,0,0.7-0.3,0.7-0.7
					C219.5,188.2,219.2,187.9,218.8,187.9z"/>
				<path class="st0" d="M206.2,187.9h-26.4c-0.4,0-0.7,0.3-0.7,0.7c0,0.4,0.3,0.7,0.7,0.7h26.4c0.4,0,0.7-0.3,0.7-0.7
					C206.9,188.2,206.6,187.9,206.2,187.9z"/>
				<path class="st0" d="M168.2,156.3c0.4,0,0.7-0.3,0.7-0.7c0-0.4-0.3-0.7-0.7-0.7c-0.4,0-0.7,0.3-0.7,0.7
					C167.5,156,167.8,156.3,168.2,156.3z"/>
				<path class="st0" d="M168.2,160.6c0.4,0,0.7-0.3,0.7-0.7c0-0.4-0.3-0.7-0.7-0.7c-0.4,0-0.7,0.3-0.7,0.7
					C167.5,160.3,167.8,160.6,168.2,160.6z"/>
				<path class="st0" d="M168.2,147.8c0.4,0,0.7-0.3,0.7-0.7s-0.3-0.7-0.7-0.7c-0.4,0-0.7,0.3-0.7,0.7S167.8,147.8,168.2,147.8z"/>
				<path class="st0" d="M168.2,152.1c0.4,0,0.7-0.3,0.7-0.7s-0.3-0.7-0.7-0.7c-0.4,0-0.7,0.3-0.7,0.7S167.8,152.1,168.2,152.1z"/>
			</g>
			<path class="st1" d="M156.3,161.7v2.2c0,1.5,1.2,2.6,2.6,2.6c1.5,0,2.6-1.2,2.6-2.6v-2.2H156.3z"/>
		</g>
		<g>
			<g>
				<path class="st4" d="M319.5,160.2v21.1c0,1.8,1.5,3.3,3.3,3.3s3.3-1.5,3.3-3.3c0,1.8,1.5,3.3,3.3,3.3s3.3-1.5,3.3-3.3v-21.1
					H319.5z"/>
				<path class="st4" d="M282.8,181.3c0,1.8,1.5,3.3,3.3,3.3c1.8,0,3.3-1.5,3.3-3.3c0,1.8,1.5,3.3,3.3,3.3s3.3-1.5,3.3-3.3v-21.1
					h-13.4V181.3z"/>
				<path class="st4" d="M301.2,185c0,1.8,1.5,3.3,3.3,3.3s3.3-1.5,3.3-3.3c0,1.8,1.5,3.3,3.3,3.3s3.3-1.5,3.3-3.3v-24.8h-13.4V185z
					"/>
			</g>
			<g>
				<path class="st0" d="M289.5,183.6c0.7,1,2,1.7,3.3,1.7c2.3,0,4.1-1.8,4.1-4v-21.1c0-0.4-0.3-0.7-0.7-0.7h-13.4
					c-0.4,0-0.7,0.3-0.7,0.7v21.1c0,2.2,1.8,4,4.1,4C287.6,185.4,288.8,184.7,289.5,183.6z M283.6,181.3v-20.4h11.9v20.4
					c0,1.4-1.2,2.6-2.6,2.6s-2.6-1.2-2.6-2.6V166c0-0.4-0.3-0.7-0.7-0.7c-0.4,0-0.7,0.3-0.7,0.7v15.3c0,1.4-1.2,2.6-2.6,2.6
					C284.7,183.9,283.6,182.7,283.6,181.3z"/>
				<path class="st0" d="M314.6,159.5h-13.4c-0.4,0-0.7,0.3-0.7,0.7V185c0,2.2,1.8,4,4.1,4c1.4,0,2.6-0.7,3.3-1.7
					c0.7,1,2,1.7,3.3,1.7c2.3,0,4.1-1.8,4.1-4v-24.8C315.3,159.8,315,159.5,314.6,159.5z M313.8,185c0,1.4-1.2,2.6-2.6,2.6
					s-2.6-1.2-2.6-2.6v-19c0-0.4-0.3-0.7-0.7-0.7c-0.4,0-0.7,0.3-0.7,0.7v19c0,1.4-1.2,2.6-2.6,2.6c-1.4,0-2.6-1.2-2.6-2.6v-24h11.9
					V185z"/>
				<path class="st0" d="M277.6,157.7h5.3c0.4,0,0.7-0.3,0.7-0.7v-12c0-0.4-0.3-0.7-0.7-0.7c-0.4,0-0.7,0.3-0.7,0.7v11.3h-3.8V144
					c0-2.5,2-4.5,4.5-4.5h1.7l4.8,1.9c0.2,0.1,0.4,0.1,0.5,0l4.8-1.9h1.2c-0.4,0.8-0.6,1.7-0.6,2.6V157c0,0.4,0.3,0.7,0.7,0.7h5.3
					c0.4,0,0.7-0.3,0.7-0.7v-14c0-0.4-0.3-0.7-0.7-0.7c-0.4,0-0.7,0.3-0.7,0.7v13.3h-3.8v-14.2c0-2.5,2-4.5,4.5-4.5h1.7l4.3,1.7v0.5
					c0,0.4,0.3,0.7,0.7,0.7s0.7-0.3,0.7-0.7v-0.5l4.3-1.7h1.7c2.5,0,4.5,2,4.5,4.5v14.2h-3.8V143c0-0.4-0.3-0.7-0.7-0.7
					s-0.7,0.3-0.7,0.7v14c0,0.4,0.3,0.7,0.7,0.7h5.3c0.4,0,0.7-0.3,0.7-0.7v-14.9c0-0.9-0.2-1.8-0.6-2.6h1.2l4.3,1.7v18.3h-6
					c-0.4,0-0.7,0.3-0.7,0.7v21.1c0,2.2,1.8,4,4.1,4c1.4,0,2.6-0.7,3.3-1.7c0.7,1,2,1.7,3.3,1.7c2.3,0,4.1-1.8,4.1-4v-21.1
					c0-0.4-0.3-0.7-0.7-0.7h-6v-18.3l4.3-1.7h1.7c2.5,0,4.5,2,4.5,4.5v12.2h-3.8v-11.3c0-0.4-0.3-0.7-0.7-0.7
					c-0.4,0-0.7,0.3-0.7,0.7v12c0,0.4,0.3,0.7,0.7,0.7h5.3c0.4,0,0.7-0.3,0.7-0.7v-13c0-3.3-2.7-6-6-6h-1.8c-0.1,0-0.2,0-0.3,0.1
					l-4.6,1.8l-4.6-1.8c-0.1,0-0.2-0.1-0.3-0.1h-1.8c-0.2,0-0.3,0-0.5,0c-1.1-1.2-2.7-2-4.4-2h-1.8c-0.1,0-0.2,0-0.3,0.1l-4.6,1.8
					l-4.6-1.8c-0.1,0-0.2-0.1-0.3-0.1h-1.8c-1.8,0-3.4,0.8-4.5,2c-0.2,0-0.3,0-0.5,0h-1.8c-0.1,0-0.2,0-0.3,0.1l-4.6,1.8l-4.6-1.8
					c-0.1,0-0.2-0.1-0.3-0.1h-1.8c-3.3,0-6,2.7-6,6v13C276.8,157.4,277.2,157.7,277.6,157.7z M332.1,160.9v20.4
					c0,1.4-1.2,2.6-2.6,2.6c-1.4,0-2.6-1.2-2.6-2.6V166c0-0.4-0.3-0.7-0.7-0.7s-0.7,0.3-0.7,0.7v15.3c0,1.4-1.2,2.6-2.6,2.6
					c-1.4,0-2.6-1.2-2.6-2.6v-20.4H332.1z"/>
				<path class="st0" d="M289.5,151.7c-0.4,0-0.7,0.3-0.7,0.7c0,0.4,0.3,0.7,0.7,0.7c0.4,0,0.7-0.3,0.7-0.7
					C290.3,152,289.9,151.7,289.5,151.7z"/>
				<path class="st0" d="M289.5,143.9c-0.4,0-0.7,0.3-0.7,0.7s0.3,0.7,0.7,0.7c0.4,0,0.7-0.3,0.7-0.7S289.9,143.9,289.5,143.9z"/>
				<path class="st0" d="M289.5,147.8c-0.4,0-0.7,0.3-0.7,0.7s0.3,0.7,0.7,0.7c0.4,0,0.7-0.3,0.7-0.7S289.9,147.8,289.5,147.8z"/>
				<path class="st0" d="M289.5,155.6c-0.4,0-0.7,0.3-0.7,0.7c0,0.4,0.3,0.7,0.7,0.7c0.4,0,0.7-0.3,0.7-0.7
					C290.3,155.9,289.9,155.6,289.5,155.6z"/>
				<path class="st0" d="M308.6,149.5c0-0.4-0.3-0.7-0.7-0.7s-0.7,0.3-0.7,0.7v1c0,0.4,0.3,0.7,0.7,0.7s0.7-0.3,0.7-0.7V149.5z"/>
				<path class="st0" d="M307.9,154.1c-0.4,0-0.7,0.3-0.7,0.7v1c0,0.4,0.3,0.7,0.7,0.7s0.7-0.3,0.7-0.7v-1
					C308.6,154.5,308.3,154.1,307.9,154.1z"/>
				<path class="st0" d="M308.6,144.1c0-0.4-0.3-0.7-0.7-0.7s-0.7,0.3-0.7,0.7v1c0,0.4,0.3,0.7,0.7,0.7s0.7-0.3,0.7-0.7V144.1z"/>
				<path class="st0" d="M279.9,187.5h-3.3c-0.4,0-0.7,0.3-0.7,0.7c0,0.4,0.3,0.7,0.7,0.7h3.3c0.4,0,0.7-0.3,0.7-0.7
					C280.6,187.9,280.3,187.5,279.9,187.5z"/>
				<path class="st0" d="M297.7,187.5h-12.9c-0.4,0-0.7,0.3-0.7,0.7c0,0.4,0.3,0.7,0.7,0.7h12.9c0.4,0,0.7-0.3,0.7-0.7
					C298.4,187.9,298.1,187.5,297.7,187.5z"/>
				<path class="st0" d="M339.1,187.5H318c-0.4,0-0.7,0.3-0.7,0.7c0,0.4,0.3,0.7,0.7,0.7h21.1c0.4,0,0.7-0.3,0.7-0.7
					C339.9,187.9,339.5,187.5,339.1,187.5z"/>
			</g>
			<g>
				<ellipse class="st1" cx="326.2" cy="132.6" rx="4.6" ry="4.9"/>
				<ellipse class="st1" cx="289.5" cy="132.6" rx="4.6" ry="4.9"/>
				<ellipse class="st1" cx="307.8" cy="130.6" rx="4.6" ry="4.9"/>
				<path class="st1" d="M332.9,157.7v2.2c0,1.5,1.2,2.6,2.6,2.6s2.6-1.2,2.6-2.6v-2.2H332.9z"/>
				<path class="st1" d="M277.6,159.9c0,1.5,1.2,2.6,2.6,2.6c1.5,0,2.6-1.2,2.6-2.6v-2.2h-5.3V159.9z"/>
				<path class="st1" d="M295.9,157.7v2.2c0,1.5,1.2,2.6,2.6,2.6c1.5,0,2.6-1.2,2.6-2.6v-2.2H295.9z"/>
				<path class="st1" d="M314.6,159.9c0,1.5,1.2,2.6,2.6,2.6s2.6-1.2,2.6-2.6v-2.2h-5.3V159.9z"/>
			</g>
		</g>
		<g>
			<g>
				<path class="st4" d="M429.1,174.4l1.1-3h-24.1c0.1,0.6,0.2,1.1,0.2,1.7v8.1c0,1.1,0.9,2,2,2h22.1c1.1,0,2-0.9,2-2v-7.8
					L429.1,174.4z"/>
				<path class="st4" d="M414,155.9c0.3,0,0.6,0,1,0.1l0-0.1c-0.6-1.1-1-2.3-1-3.6c0-4,3.2-7.2,7.2-7.2c2.2,0,4.2,1,5.5,2.6l0,0
					c0.5-2.2,1.7-4.2,3.3-5.7c-2.4-3.2-6.2-5.3-10.6-5.3c-7.3,0-13.2,5.9-13.2,13.2c0,3.5,1.4,6.7,3.6,9
					C410.4,157.2,412,155.9,414,155.9z"/>
			</g>
			<g>
				<path class="st1" d="M410.2,185.1c0,2.2,1.8,3.9,3.9,3.9h10.4c2.2,0,3.9-1.8,3.9-3.9v-2h-18.2V185.1z"/>
				<path class="st1" d="M451.1,149.6c-0.9,0-1.8,0.2-2.6,0.5l0,0c-0.1-6-4.9-10.9-11-10.9c-2.9,0-5.5,1.1-7.5,2.9
					c-1.6,1.5-2.8,3.4-3.3,5.7l0,0c-1.3-1.6-3.3-2.6-5.5-2.6c-4,0-7.2,3.2-7.2,7.2c0,1.3,0.3,2.5,1,3.6l0,0.1
					c-0.3-0.1-0.6-0.1-1-0.1c-2,0-3.6,1.3-4.1,3.1c-0.1,0.4-0.2,0.8-0.2,1.2c0,2.4,1.9,4.3,4.3,4.3h18.7l6-16.6l0.5,16.3l11.5-3.5
					l-1.4,3.8h1.8c4.1,0,7.5-3.3,7.5-7.5S455.2,149.6,451.1,149.6z"/>
			</g>
			<g>
				<path class="st0" d="M451.1,148.9c-0.7,0-1.3,0.1-1.9,0.2c-0.4-4.8-3.7-8.7-8.1-10.1c-3.6-7.1-10.6-12.2-18.8-13.1
					c-7-0.8-13.7,1.3-18.9,6c-5.1,4.6-8.1,11.2-8.1,18c0,6.9,2.9,13.4,8,18c1.1,1,1.8,2.2,2.1,3.6l0,0c0.1,0.5,0.2,1,0.2,1.5v8.1
					c0,1.5,1.2,2.7,2.7,2.7h22.1c1.5,0,2.7-1.2,2.7-2.7v-7.2l6.8-2.1l0.3,15.2c0,0.4,0.3,0.6,0.6,0.7c0,0,0.1,0,0.1,0
					c0.3,0,0.6-0.2,0.7-0.5l8.1-22h1.3c4.5,0,8.2-3.7,8.2-8.2S455.6,148.9,451.1,148.9z M404.3,166.8c-4.8-4.3-7.6-10.5-7.6-16.9
					c0-6.5,2.8-12.6,7.6-16.9c4.9-4.4,11.2-6.4,17.8-5.6c7.3,0.8,13.5,5.1,17,11.2c-0.5-0.1-1.1-0.1-1.7-0.1c-5,0-9.5,3.3-11.1,7.9
					c-1.4-1.3-3.3-2-5.2-2c-4.4,0-7.9,3.6-7.9,7.9c0,1,0.2,2,0.5,2.9c-2.7,0.1-4.9,2.3-4.9,5.1c0,2.8,2.3,5.1,5.1,5.1h17.6l-1.9,5.4
					h-23C406.3,169.2,405.4,167.9,404.3,166.8z M431.6,181.2c0,0.7-0.5,1.2-1.2,1.2h-22.1c-0.7,0-1.2-0.5-1.2-1.2V178h18.8
					c0.4,0,0.7-0.3,0.7-0.7s-0.3-0.7-0.7-0.7H407v-3.4c0-0.3,0-0.6-0.1-1h22.2l-0.7,2c-0.1,0.3,0,0.6,0.2,0.8
					c0.2,0.2,0.5,0.3,0.7,0.2l2.3-0.7V181.2z M441.6,183.2l-0.3-12.3c0-0.2-0.1-0.4-0.3-0.6c-0.1-0.1-0.3-0.1-0.4-0.1
					c-0.1,0-0.1,0-0.2,0l-10.1,3.1l7.7-21.4l0.4,12.4c0,0.2,0.1,0.4,0.3,0.6c0.2,0.1,0.4,0.2,0.6,0.1l10.1-3.1L441.6,183.2z
					 M451.1,163.8h-0.8l1-2.8c0.1-0.3,0-0.6-0.2-0.8c-0.2-0.2-0.5-0.3-0.7-0.2l-10.6,3.2l-0.4-15.3c0-0.4-0.3-0.6-0.6-0.7
					c-0.3-0.1-0.7,0.1-0.8,0.5l-5.8,16.1H414c-2,0-3.6-1.6-3.6-3.6s1.6-3.6,3.6-3.6c0.2,0,0.4,0,0.6,0.1c0.6,1,1.5,1.8,2.5,2.4
					c0.1,0.1,0.3,0.1,0.4,0.1c0.2,0,0.5-0.1,0.6-0.4c0.2-0.3,0.1-0.8-0.2-1c-0.9-0.6-1.7-1.4-2.3-2.3c-0.6-1-0.9-2.1-0.9-3.2
					c0-3.6,2.9-6.5,6.5-6.5c1.8,0,3.5,0.8,4.8,2.1c-0.1,0.7-0.2,1.4-0.2,2.2c0,2.2,0.6,4.4,1.8,6.3c0.1,0.2,0.4,0.3,0.6,0.3
					c0.1,0,0.3,0,0.4-0.1c0.3-0.2,0.4-0.7,0.2-1c-1-1.6-1.6-3.5-1.6-5.5c0-0.8,0.1-1.5,0.2-2.2l0,0c1-4.6,5.2-8,10-8
					c5.5,0,10,4.3,10.2,9.7c-2.9,1.3-4.8,4.2-4.8,7.5c0,0.4,0.3,0.7,0.7,0.7s0.7-0.3,0.7-0.7c0-2.8,1.8-5.3,4.4-6.3
					c0.8-0.3,1.5-0.4,2.4-0.4c3.7,0,6.7,3,6.7,6.7S454.8,163.8,451.1,163.8z"/>
				<path class="st0" d="M420.2,131.9c0-0.4-0.3-0.7-0.7-0.7c-10.4,0-18.8,8.4-18.8,18.8c0,0.4,0.3,0.7,0.7,0.7
					c0.4,0,0.7-0.3,0.7-0.7c0-9.6,7.8-17.3,17.3-17.3C419.8,132.7,420.2,132.3,420.2,131.9z"/>
				<path class="st0" d="M425.6,133.8c1.5,0.6,3,1.4,4.3,2.4c0.1,0.1,0.3,0.1,0.4,0.1c0.2,0,0.4-0.1,0.6-0.3c0.2-0.3,0.2-0.8-0.1-1
					c-1.4-1.1-3-2-4.7-2.6c-0.4-0.1-0.8,0-0.9,0.4C425,133.2,425.2,133.6,425.6,133.8z"/>
			</g>
		</g>
		<g>
			<g>
				<path class="st4" d="M68,257.2c-4.5,0-8.3,3.5-8.7,7.9l8.7,8.8l8.7-8.8C76.3,260.7,72.6,257.2,68,257.2z"/>
				<path class="st4" d="M80.6,282.7v25c0,1.8,1.5,3.3,3.3,3.3s3.3-1.5,3.3-3.3c0,1.8,1.5,3.3,3.3,3.3s3.3-1.5,3.3-3.3v-25H80.6z"/>
				<path class="st4" d="M48.7,250.2c-2.6,0-4.6,2.2-4.6,4.9s2.1,4.9,4.6,4.9c2.6,0,4.6-2.2,4.6-4.9S51.3,250.2,48.7,250.2z"/>
			</g>
			<g>
				<path class="st1" d="M42,307.7c0,1.8,1.5,3.3,3.3,3.3s3.3-1.5,3.3-3.3c0,1.8,1.5,3.3,3.3,3.3s3.3-1.5,3.3-3.3v-25H42V307.7z"/>
				<ellipse class="st1" cx="87.3" cy="254.1" rx="4.6" ry="4.9"/>
				<path class="st1" d="M64.9,277c-1,1-1,2.7,0,3.7c1,1,2.7,1,3.7,0l1.4-1.4l-3.7-3.7L64.9,277z"/>
			</g>
			<g>
				<path class="st0" d="M60.6,284.7v3.9c0,0.4,0.3,0.7,0.7,0.7s0.7-0.3,0.7-0.7v-3.9c0-0.4-0.3-0.7-0.7-0.7S60.6,284.3,60.6,284.7z
					"/>
				<path class="st0" d="M75.2,310.3H62v-16.9c0-0.4-0.3-0.7-0.7-0.7s-0.7,0.3-0.7,0.7v17.6c0,0.4,0.3,0.7,0.7,0.7h13.9
					c0.4,0,0.7-0.3,0.7-0.7C75.9,310.6,75.6,310.3,75.2,310.3z"/>
				<path class="st0" d="M48.7,276.1c0.4,0,0.7-0.3,0.7-0.7c0-0.4-0.3-0.7-0.7-0.7c-0.4,0-0.7,0.3-0.7,0.7
					C48,275.8,48.3,276.1,48.7,276.1z"/>
				<path class="st0" d="M48.7,279.8c0.4,0,0.7-0.3,0.7-0.7c0-0.4-0.3-0.7-0.7-0.7c-0.4,0-0.7,0.3-0.7,0.7
					C48,279.4,48.3,279.8,48.7,279.8z"/>
				<path class="st0" d="M48.7,272.4c0.4,0,0.7-0.3,0.7-0.7c0-0.4-0.3-0.7-0.7-0.7c-0.4,0-0.7,0.3-0.7,0.7
					C48,272.1,48.3,272.4,48.7,272.4z"/>
				<path class="st0" d="M48.7,268.8c0.4,0,0.7-0.3,0.7-0.7c0-0.4-0.3-0.7-0.7-0.7c-0.4,0-0.7,0.3-0.7,0.7
					C48,268.4,48.3,268.8,48.7,268.8z"/>
				<path class="st0" d="M64.8,277.1l-8.9-8.9c-0.2-0.2-0.5-0.3-0.8-0.2c-0.3,0.1-0.5,0.4-0.5,0.7V282H42c-0.4,0-0.7,0.3-0.7,0.7v25
					c0,2.2,1.8,4,4.1,4c1.4,0,2.6-0.7,3.3-1.7c0.7,1,2,1.7,3.3,1.7c2.3,0,4.1-1.8,4.1-4v-37.2l8,8C64.3,278,64.5,277.5,64.8,277.1z
					 M54.7,307.7c0,1.4-1.2,2.6-2.6,2.6s-2.6-1.2-2.6-2.6v-19.3c0-0.4-0.3-0.7-0.7-0.7s-0.7,0.3-0.7,0.7v19.3c0,1.4-1.2,2.6-2.6,2.6
					c-1.4,0-2.6-1.2-2.6-2.6v-24.3h11.9V307.7z"/>
				<path class="st0" d="M93.4,260.5H83c-1.8,0-3.4,0.7-4.7,1.9L68,272.9l-10.4-10.4c-1.2-1.3-2.9-1.9-4.7-1.9h-0.4
					c-0.2,0-0.3,0.1-0.5,0.2l-3.5,2.7l-3.5-2.7c-0.1-0.1-0.3-0.2-0.5-0.2H42c-3.3,0-6,2.7-6,6v13c0,0.4,0.3,0.7,0.7,0.7H42
					c0.4,0,0.7-0.3,0.7-0.7v-12c0-0.4-0.3-0.7-0.7-0.7s-0.7,0.3-0.7,0.7v11.3h-3.8v-12.2c0-2.5,2-4.5,4.5-4.5h2.5l3.7,2.9
					c0.3,0.2,0.6,0.2,0.9,0l3.7-2.9H53c1.4,0,2.7,0.5,3.6,1.5L67,273.9l-0.6,0.6c-0.3,0.3-0.3,0.7,0,1l3.7,3.7c0.3,0.3,0.8,0.3,1,0
					l8.7-8.8v37.2c0,2.2,1.8,4,4.1,4c1.4,0,2.6-0.7,3.3-1.7c0.7,1,2,1.7,3.3,1.7c2.3,0,4.1-1.8,4.1-4v-25c0-0.4-0.3-0.7-0.7-0.7
					H81.4v-13.2c0-0.3-0.2-0.6-0.5-0.7s-0.6-0.1-0.8,0.2l-9.5,9.5l-2.7-2.7l11.5-11.5c1-1,2.3-1.5,3.6-1.5h10.4
					c2.8,0,5.1,2.3,5.1,5.1v11.6h-3.8v-11.3c0-0.4-0.3-0.7-0.7-0.7c-0.4,0-0.7,0.3-0.7,0.7v12c0,0.4,0.3,0.7,0.7,0.7h5.3
					c0.4,0,0.7-0.3,0.7-0.7v-12.4C100,263.5,97.1,260.5,93.4,260.5z M81.4,283.4h11.9v24.3c0,1.4-1.2,2.6-2.6,2.6
					c-1.4,0-2.6-1.2-2.6-2.6v-18.3c0-0.4-0.3-0.7-0.7-0.7s-0.7,0.3-0.7,0.7v18.3c0,1.4-1.2,2.6-2.6,2.6c-1.4,0-2.6-1.2-2.6-2.6
					V283.4z"/>
				<path class="st0" d="M62.6,254.3c1.7-0.8,3.5-1.2,5.4-1.2c2.1,0,4.2,0.5,6.1,1.5c0.1,0.1,0.2,0.1,0.3,0.1c0.3,0,0.5-0.1,0.6-0.4
					c0.2-0.4,0.1-0.8-0.3-1c-2.1-1.1-4.4-1.7-6.8-1.7c-2.1,0-4.1,0.4-6,1.3c-0.4,0.2-0.5,0.6-0.4,1
					C61.8,254.3,62.3,254.4,62.6,254.3z"/>
				<path class="st0" d="M56.9,258.8c0.2,0,0.5-0.1,0.6-0.3c0.5-0.7,1.1-1.4,1.8-2c0.3-0.3,0.3-0.7,0-1c-0.3-0.3-0.7-0.3-1,0
					c-0.7,0.7-1.4,1.4-2,2.3c-0.2,0.3-0.2,0.8,0.2,1C56.6,258.7,56.8,258.8,56.9,258.8z"/>
				<path class="st0" d="M64.7,261.7c-0.3-0.3-0.8-0.3-1,0c-0.3,0.3-0.3,0.8,0,1l3.9,3.9c0.1,0.1,0.3,0.2,0.5,0.2
					c0.2,0,0.4-0.1,0.5-0.2l10.9-10.9c0.3-0.3,0.3-0.8,0-1c-0.3-0.3-0.8-0.3-1,0L68,265L64.7,261.7z"/>
			</g>
			<path class="st1" d="M94,280.2v2.2c0,1.5,1.2,2.6,2.6,2.6c1.5,0,2.6-1.2,2.6-2.6v-2.2H94z"/>
			<path class="st4" d="M36.8,282.4c0,1.5,1.2,2.6,2.6,2.6c1.5,0,2.6-1.2,2.6-2.6v-2.2h-5.3V282.4z"/>
		</g>
		<g>
			<g>
				<path class="st1" d="M201.3,292.3h-2c-0.1-0.9-0.4-1.7-0.7-2.6l1.7-1c0.3-0.2,0.5-0.7,0.3-1l-1.1-1.9c-0.2-0.4-0.7-0.5-1-0.3
					l-1.7,1c-0.6-0.7-1.2-1.3-1.9-1.9l1-1.7c0.2-0.4,0.1-0.8-0.3-1l-1.9-1.1c-0.4-0.2-0.8-0.1-1,0.3l-1,1.7
					c-0.8-0.3-1.7-0.6-2.6-0.7v-2c0-0.4-0.3-0.7-0.7-0.7h-2.2c-0.4,0-0.7,0.3-0.7,0.7v2c-0.9,0.1-1.7,0.4-2.6,0.7l-1-1.7
					c-0.2-0.4-0.7-0.5-1-0.3l-1.9,1.1c-0.4,0.2-0.5,0.7-0.3,1l1,1.7c-0.7,0.6-1.3,1.2-1.9,1.9l-1.7-1c-0.3-0.2-0.8-0.1-1,0.3
					l-1.1,1.9c-0.2,0.4-0.1,0.8,0.3,1l1.7,1c-0.3,0.8-0.6,1.7-0.7,2.6h-2c-0.4,0-0.7,0.3-0.7,0.7v2.2c0,0.4,0.3,0.7,0.7,0.7h7.3
					c-0.2-0.6-0.3-1.2-0.3-1.8c0-3.8,3.1-6.8,6.8-6.8s6.8,3.1,6.8,6.8c0,0.6-0.1,1.2-0.3,1.8h7.3c0.4,0,0.7-0.3,0.7-0.7v-2.2
					C202.1,292.7,201.7,292.3,201.3,292.3z"/>
				<rect x="166" y="249.2" class="st1" width="43" height="7.8"/>
			</g>
			<path class="st4" d="M156.3,296.1v4.9c0,1.6,1.3,2.9,2.9,2.9h56.7c1.6,0,2.9-1.3,2.9-2.9v-4.9H156.3z"/>
			<g>
				<path class="st0" d="M193.4,275.9h-5.6c-0.4,0-0.7,0.3-0.7,0.7s0.3,0.7,0.7,0.7h5.6c0.4,0,0.7-0.3,0.7-0.7
					S193.8,275.9,193.4,275.9z"/>
				<path class="st0" d="M183.9,275.9h-7.2c-0.4,0-0.7,0.3-0.7,0.7s0.3,0.7,0.7,0.7h7.2c0.4,0,0.7-0.3,0.7-0.7
					S184.3,275.9,183.9,275.9z"/>
				<path class="st0" d="M172.8,275.9h-1.8c-0.4,0-0.7,0.3-0.7,0.7s0.3,0.7,0.7,0.7h1.8c0.4,0,0.7-0.3,0.7-0.7
					S173.2,275.9,172.8,275.9z"/>
				<path class="st0" d="M156.3,253.1c0.4,0,0.7-0.3,0.7-0.7V250h5.1c0.4,0,0.7-0.3,0.7-0.7c0-0.4-0.3-0.7-0.7-0.7h-5.9
					c-0.4,0-0.7,0.3-0.7,0.7v3.2C155.5,252.8,155.9,253.1,156.3,253.1z"/>
				<path class="st0" d="M156.3,259.7c0.4,0,0.7-0.3,0.7-0.7v-2.7c0-0.4-0.3-0.7-0.7-0.7s-0.7,0.3-0.7,0.7v2.7
					C155.5,259.4,155.9,259.7,156.3,259.7z"/>
				<path class="st0" d="M191,271.7c0,0.4,0.3,0.7,0.7,0.7h8.6c0.4,0,0.7-0.3,0.7-0.7c0-0.4-0.3-0.7-0.7-0.7h-8.6
					C191.3,271,191,271.3,191,271.7z"/>
				<path class="st0" d="M176.7,272.4h11.1c0.4,0,0.7-0.3,0.7-0.7c0-0.4-0.3-0.7-0.7-0.7h-11.1c-0.4,0-0.7,0.3-0.7,0.7
					C175.9,272.1,176.3,272.4,176.7,272.4z"/>
				<path class="st0" d="M172.8,271h-1.8c-0.4,0-0.7,0.3-0.7,0.7c0,0.4,0.3,0.7,0.7,0.7h1.8c0.4,0,0.7-0.3,0.7-0.7
					C173.5,271.3,173.2,271,172.8,271z"/>
				<path class="st0" d="M186.1,266.8c0,0.4,0.3,0.7,0.7,0.7h11.5c0.4,0,0.7-0.3,0.7-0.7c0-0.4-0.3-0.7-0.7-0.7h-11.5
					C186.4,266.1,186.1,266.4,186.1,266.8z"/>
				<path class="st0" d="M176.7,267.6h6.2c0.4,0,0.7-0.3,0.7-0.7c0-0.4-0.3-0.7-0.7-0.7h-6.2c-0.4,0-0.7,0.3-0.7,0.7
					C175.9,267.2,176.3,267.6,176.7,267.6z"/>
				<path class="st0" d="M172.8,266.1h-1.8c-0.4,0-0.7,0.3-0.7,0.7c0,0.4,0.3,0.7,0.7,0.7h1.8c0.4,0,0.7-0.3,0.7-0.7
					C173.5,266.4,173.2,266.1,172.8,266.1z"/>
				<path class="st0" d="M189.7,262.7h5.6c0.4,0,0.7-0.3,0.7-0.7c0-0.4-0.3-0.7-0.7-0.7h-5.6c-0.4,0-0.7,0.3-0.7,0.7
					C189,262.3,189.3,262.7,189.7,262.7z"/>
				<path class="st0" d="M176.7,262.7h9.2c0.4,0,0.7-0.3,0.7-0.7c0-0.4-0.3-0.7-0.7-0.7h-9.2c-0.4,0-0.7,0.3-0.7,0.7
					C175.9,262.3,176.3,262.7,176.7,262.7z"/>
				<path class="st0" d="M172.8,261.2h-1.8c-0.4,0-0.7,0.3-0.7,0.7c0,0.4,0.3,0.7,0.7,0.7h1.8c0.4,0,0.7-0.3,0.7-0.7
					C173.5,261.5,173.2,261.2,172.8,261.2z"/>
				<path class="st0" d="M204.1,261.2h-4.9c-0.4,0-0.7,0.3-0.7,0.7c0,0.4,0.3,0.7,0.7,0.7h4.9c0.4,0,0.7-0.3,0.7-0.7
					C204.9,261.5,204.5,261.2,204.1,261.2z"/>
				<path class="st0" d="M202.2,275.9h-4.9c-0.4,0-0.7,0.3-0.7,0.7s0.3,0.7,0.7,0.7h4.9c0.4,0,0.7-0.3,0.7-0.7
					S202.6,275.9,202.2,275.9z"/>
				<path class="st0" d="M204.5,252.4c-0.4,0-0.7,0.3-0.7,0.7c0,0.4,0.3,0.7,0.7,0.7c0.4,0,0.7-0.3,0.7-0.7
					C205.2,252.8,204.9,252.4,204.5,252.4z"/>
				<path class="st0" d="M199.9,252.4c-0.4,0-0.7,0.3-0.7,0.7c0,0.4,0.3,0.7,0.7,0.7c0.4,0,0.7-0.3,0.7-0.7
					C200.6,252.8,200.3,252.4,199.9,252.4z"/>
				<path class="st0" d="M194.8,252.7c-0.1,0.1-0.2,0.3-0.2,0.5c0,0.2,0.1,0.4,0.2,0.5c0.1,0.1,0.3,0.2,0.5,0.2
					c0.2,0,0.4-0.1,0.5-0.2c0.1-0.1,0.2-0.3,0.2-0.5c0-0.2-0.1-0.4-0.2-0.5C195.6,252.4,195.1,252.4,194.8,252.7z"/>
				<path class="st0" d="M215.9,261.2h-6.1v-12c0-0.4-0.3-0.7-0.7-0.7h-43c-0.4,0-0.7,0.3-0.7,0.7v12h-6.1c-2,0-3.7,1.6-3.7,3.7V301
					c0,2,1.6,3.7,3.7,3.7H177v6.3h-11c-0.4,0-0.7,0.3-0.7,0.7s0.3,0.7,0.7,0.7c0,0,31.3,0,31.3,0H209c0.4,0,0.7-0.3,0.7-0.7
					s-0.3-0.7-0.7-0.7h-11v-6.3h17.8c2,0,3.7-1.6,3.7-3.7v-36.2C219.5,262.8,217.9,261.2,215.9,261.2z M166.8,250h41.5v6.4h-41.5
					V250z M166.8,257.8h41.5v37.6h-41.5V257.8z M157,264.9c0-1.2,1-2.2,2.2-2.2h6.1v32.7H157V264.9z M196.6,311h-18.1v-6.3h18.1V311
					z M218.1,301c0,1.2-1,2.2-2.2,2.2h-56.7c-1.2,0-2.2-1-2.2-2.2v-4.2h61.1V301z M218.1,295.4h-8.3v-32.7h6.1c1.2,0,2.2,1,2.2,2.2
					V295.4z"/>
				<path class="st0" d="M213.9,271c-0.4,0-0.7,0.3-0.7,0.7v12.7c0,0.4,0.3,0.7,0.7,0.7c0.4,0,0.7-0.3,0.7-0.7v-12.7
					C214.6,271.3,214.3,271,213.9,271z"/>
				<path class="st0" d="M213.9,287.6c-0.4,0-0.7,0.3-0.7,0.7v2.9c0,0.4,0.3,0.7,0.7,0.7c0.4,0,0.7-0.3,0.7-0.7v-2.9
					C214.6,287.9,214.3,287.6,213.9,287.6z"/>
				<path class="st0" d="M161.2,276.8c-0.4,0-0.7,0.3-0.7,0.7v9.8c0,0.4,0.3,0.7,0.7,0.7s0.7-0.3,0.7-0.7v-9.8
					C161.9,277.2,161.6,276.8,161.2,276.8z"/>
				<path class="st0" d="M161.2,270c-0.4,0-0.7,0.3-0.7,0.7v2.9c0,0.4,0.3,0.7,0.7,0.7s0.7-0.3,0.7-0.7v-2.9
					C161.9,270.3,161.6,270,161.2,270z"/>
			</g>
		</g>
		<g>
			<g>
				<path class="st4" d="M325.1,272h-2.5c-0.2-1.1-0.5-2.2-0.9-3.2l2.2-1.2c0.4-0.3,0.6-0.8,0.3-1.3l-1.4-2.4
					c-0.3-0.4-0.8-0.6-1.3-0.3l-2.2,1.3c-0.7-0.9-1.5-1.7-2.4-2.4l1.3-2.2c0.3-0.4,0.1-1-0.3-1.3l-2.4-1.4c-0.4-0.3-1-0.1-1.3,0.3
					l-1.2,2.2c-1-0.4-2.1-0.7-3.2-0.9v-2.5c0-0.5-0.4-0.9-0.9-0.9h-2.8c-0.5,0-0.9,0.4-0.9,0.9v2.5c-1.1,0.2-2.2,0.5-3.2,0.9
					l-1.2-2.2c-0.3-0.4-0.8-0.6-1.3-0.3l-2.4,1.4c-0.4,0.3-0.6,0.8-0.3,1.3l1.3,2.2c-0.9,0.7-1.7,1.5-2.4,2.4l-2.2-1.3
					c-0.4-0.3-1-0.1-1.3,0.3l-1.4,2.4c-0.3,0.4-0.1,1,0.3,1.3l2.2,1.2c-0.4,1-0.7,2.1-0.9,3.2h-2.5c-0.5,0-0.9,0.4-0.9,0.9v2.8
					c0,0.5,0.4,0.9,0.9,0.9h2.5c0.2,1.1,0.5,2.2,0.9,3.2l-2.2,1.2c-0.4,0.3-0.6,0.8-0.3,1.3l1.4,2.4c0.3,0.4,0.8,0.6,1.3,0.3
					l2.2-1.3c0.7,0.9,1.5,1.7,2.4,2.4l-1.3,2.2c-0.3,0.4-0.1,1,0.3,1.3l2.4,1.4c0.4,0.3,1,0.1,1.3-0.3l1.2-2.2
					c1,0.4,2.1,0.7,3.2,0.9v2.5c0,0.5,0.4,0.9,0.9,0.9h2.8c0.5,0,0.9-0.4,0.9-0.9v-2.5c1.1-0.2,2.2-0.5,3.2-0.9l1.2,2.2
					c0.3,0.4,0.8,0.6,1.3,0.3l2.4-1.4c0.4-0.3,0.6-0.8,0.3-1.3l-1.3-2.2c0.9-0.7,1.7-1.5,2.4-2.4l2.2,1.3c0.4,0.3,1,0.1,1.3-0.3
					l1.4-2.4c0.3-0.4,0.1-1-0.3-1.3l-2.2-1.2c0.4-1,0.7-2.1,0.9-3.2h2.5c0.5,0,0.9-0.4,0.9-0.9v-2.8
					C326.1,272.4,325.6,272,325.1,272z M307.5,284.5c-5.7,0-10.3-4.6-10.3-10.3s4.6-10.3,10.3-10.3s10.3,4.6,10.3,10.3
					S313.2,284.5,307.5,284.5z"/>
				<path class="st4" d="M302.2,309.8c0,1.1,0.9,2,2,2h6.8c1.1,0,2-0.9,2-2v-3.9h-10.7V309.8z"/>
				<polygon class="st4" points="302.2,276.3 312.9,276.3 307.5,267.8 				"/>
			</g>
			<polygon class="st1" points="312.9,276.3 302.2,276.3 302.2,305.9 312.9,305.9 			"/>
			<g>
				<path class="st0" d="M338.6,283c-4.2-4.9-5.2-8.3-5.3-8.8c0-14.2-11.6-25.7-25.8-25.7c-14.2,0-25.8,11.6-25.8,25.8
					c0,4.5,1.2,9,3.4,12.9c0,0,0,0,0,0.1c0.8,1.3,1.7,2.7,2.5,4.1c1.5,2.4,2.9,4.6,3.7,6.4c1.9,4.1,2,14,2,14.1
					c0,0.4,0.3,0.7,0.7,0.7c0,0,0,0,0,0c0.4,0,0.7-0.3,0.7-0.7c0-0.4-0.1-10.3-2.1-14.7c-0.9-1.9-2.3-4.1-3.8-6.5
					c-0.8-1.4-1.7-2.8-2.5-4.1c0,0,0,0,0,0c-2.1-3.7-3.2-7.8-3.2-12.1c0-13.4,10.9-24.4,24.4-24.4s24.4,10.9,24.4,24.4
					c0,0.1,0,0.1,0,0.1c0,0.2,0.8,3.9,5.6,9.5c0.2,0.3,1,1.2,0.8,2.1c-0.1,0.4-0.4,0.8-0.9,1.1c-2.4,1.4-5.2,2.5-5.2,2.5
					c-0.3,0.1-0.5,0.4-0.5,0.8c0,0.1,0.8,5.8,0.1,9.2c-0.4,1.9-4.7,2.6-8.3,2.6c-2.4,0-4,1.5-4,3.9v5.6c0,0.4,0.3,0.7,0.7,0.7
					c0.4,0,0.7-0.3,0.7-0.7v-5.6c0-1.5,0.9-2.4,2.5-2.4c3.4,0,9.1-0.5,9.8-3.8c0.6-3,0.2-7.5,0-9.1c1-0.4,3-1.3,4.9-2.4
					c0.9-0.5,1.5-1.3,1.6-2.1C340.1,285,339.2,283.7,338.6,283z"/>
				<path class="st0" d="M285.8,253c0.2,0,0.4-0.1,0.5-0.2c1.1-1.1,2.3-2.1,3.5-3c0.3-0.2,0.4-0.7,0.2-1c-0.2-0.3-0.7-0.4-1-0.2
					c-1.3,0.9-2.5,2-3.7,3.1c-0.3,0.3-0.3,0.7,0,1C285.4,252.9,285.6,253,285.8,253z"/>
				<path class="st0" d="M279.4,261.4c0.1,0,0.2,0.1,0.3,0.1c0.3,0,0.5-0.2,0.7-0.4c0.7-1.5,1.6-2.9,2.5-4.2c0.2-0.3,0.2-0.8-0.2-1
					c-0.3-0.2-0.8-0.2-1,0.2c-1,1.4-1.9,2.9-2.6,4.4C278.9,260.7,279,261.2,279.4,261.4z"/>
				<path class="st0" d="M277.3,274.3c0-2.9,0.4-5.7,1.2-8.4c0.1-0.4-0.1-0.8-0.5-0.9c-0.4-0.1-0.8,0.1-0.9,0.5
					c-0.8,2.9-1.2,5.8-1.2,8.8c0,7.7,2.8,15.2,7.9,21c0.1,0.2,0.3,0.2,0.5,0.2c0.2,0,0.3-0.1,0.5-0.2c0.3-0.3,0.3-0.7,0.1-1
					C280,288.8,277.3,281.7,277.3,274.3z"/>
				<path class="st0" d="M313.8,305.2h-0.2l0-28.8c0-0.1,0-0.3-0.1-0.4l-5.4-8.5c-0.3-0.4-1-0.4-1.2,0l-5.4,8.5
					c-0.1,0.1-0.1,0.3-0.1,0.4l0,28.8h-0.3c-0.4,0-0.7,0.3-0.7,0.7c0,0.4,0.3,0.7,0.7,0.7h1c0,0,0,0,0.1,0h0l11.7,0
					c0.4,0,0.7-0.3,0.7-0.7C314.6,305.5,314.3,305.2,313.8,305.2z M307.5,269.2l4,6.4l-8.1,0L307.5,269.2z M302.9,305.2l0-28.1
					l3.9,0l0,28.1L302.9,305.2z M308.3,305.2l0-28.1l3.9,0l0,28.1L308.3,305.2z"/>
			</g>
		</g>
		<g>
			<g>
				<path class="st4" d="M420.6,285.4v23.1c0,1.8,1.5,3.3,3.3,3.3c1.8,0,3.3-1.5,3.3-3.3c0,1.8,1.5,3.3,3.3,3.3s3.3-1.5,3.3-3.3
					v-23.1H420.6z"/>
				<path class="st4" d="M410.4,253l3.7-3.7H396v18.2l3.7-3.7l8.5,4.9c1.8-2.9,4.2-5.3,7.1-7.1L410.4,253L410.4,253z"/>
			</g>
			<path class="st1" d="M439.2,299.5l4.9,8.5l0,0l-3.7,3.7h18.2v-18.2l-3.7,3.7l-8.5-4.9C444.5,295.3,442.1,297.7,439.2,299.5z"/>
			<g>
				<path class="st0" d="M454.3,288.9c-0.4-0.1-0.8,0.1-0.9,0.5c-0.3,0.9-0.7,1.8-1.1,2.7c-0.2,0.4,0,0.8,0.4,1
					c0.1,0,0.2,0.1,0.3,0.1c0.3,0,0.5-0.2,0.7-0.4c0.4-0.9,0.8-1.9,1.1-2.9C454.9,289.5,454.7,289.1,454.3,288.9z"/>
				<path class="st0" d="M455.2,286.1c0.3,0,0.7-0.3,0.7-0.6c0.3-1.6,0.4-3.3,0.4-5c0-4.3-0.9-8.4-2.7-12.2c-0.2-0.4-0.6-0.5-1-0.4
					c-0.4,0.2-0.5,0.6-0.4,1c1.7,3.7,2.6,7.6,2.6,11.6c0,1.6-0.1,3.2-0.4,4.7c-0.1,0.4,0.2,0.8,0.6,0.8
					C455.1,286.1,455.1,286.1,455.2,286.1z"/>
				<path class="st0" d="M400.2,272.1c0.1,0,0.2,0,0.2,0c0.3,0,0.6-0.2,0.7-0.5c0.3-0.9,0.7-1.8,1.1-2.7c0.2-0.4,0-0.8-0.4-1
					c-0.4-0.2-0.8,0-1,0.4c-0.4,0.9-0.8,1.9-1.2,2.9C399.6,271.5,399.8,271.9,400.2,272.1z"/>
				<path class="st0" d="M398.6,275.5c-0.3,1.6-0.4,3.3-0.4,5c0,4.3,0.9,8.4,2.7,12.2c0.1,0.3,0.4,0.4,0.7,0.4c0.1,0,0.2,0,0.3-0.1
					c0.4-0.2,0.5-0.6,0.4-1c-1.7-3.6-2.6-7.6-2.6-11.6c0-1.6,0.1-3.2,0.4-4.7c0.1-0.4-0.2-0.8-0.6-0.8
					C399.1,274.9,398.7,275.1,398.6,275.5z"/>
				<path class="st0" d="M434,284.6h-13.4c-0.4,0-0.7,0.3-0.7,0.7v23.1c0,2.2,1.8,4,4.1,4c1.4,0,2.6-0.7,3.3-1.7
					c0.7,1,2,1.7,3.3,1.7c2.3,0,4.1-1.8,4.1-4v-23.1C434.7,285,434.4,284.6,434,284.6z M433.2,308.5c0,1.4-1.2,2.6-2.6,2.6
					s-2.6-1.2-2.6-2.6v-17.3c0-0.4-0.3-0.7-0.7-0.7c-0.4,0-0.7,0.3-0.7,0.7v17.3c0,1.4-1.2,2.6-2.6,2.6c-1.4,0-2.6-1.2-2.6-2.6
					v-22.3h11.9V308.5z"/>
				<path class="st0" d="M414.6,282.2c0,0.4,0.3,0.7,0.7,0.7h5.3c0.4,0,0.7-0.3,0.7-0.7v-11.1c0-0.4-0.3-0.7-0.7-0.7
					c-0.4,0-0.7,0.3-0.7,0.7v10.3H416v-11.3c0-2.5,2-4.5,4.5-4.5h1.7l4.3,1.7v0.5c0,0.4,0.3,0.7,0.7,0.7s0.7-0.3,0.7-0.7v-0.5
					l4.3-1.7h1.7c2.5,0,4.5,2,4.5,4.5v11.3h-3.8v-10.3c0-0.4-0.3-0.7-0.7-0.7s-0.7,0.3-0.7,0.7v11.1c0,0.4,0.3,0.7,0.7,0.7h5.3
					c0.4,0,0.7-0.3,0.7-0.7v-12c0-3.3-2.7-6-6-6h-1.8c-0.1,0-0.2,0-0.3,0.1l-4.6,1.8l-4.6-1.8c-0.1,0-0.2-0.1-0.3-0.1h-1.8
					c-3.3,0-6,2.7-6,6V282.2z"/>
				<path class="st0" d="M427.3,280.8c-0.4,0-0.7,0.3-0.7,0.7v1c0,0.4,0.3,0.7,0.7,0.7s0.7-0.3,0.7-0.7v-1
					C428,281.1,427.7,280.8,427.3,280.8z"/>
				<path class="st0" d="M428,271.7c0-0.4-0.3-0.7-0.7-0.7s-0.7,0.3-0.7,0.7v1c0,0.4,0.3,0.7,0.7,0.7s0.7-0.3,0.7-0.7V271.7z"/>
				<path class="st0" d="M428,276.6c0-0.4-0.3-0.7-0.7-0.7s-0.7,0.3-0.7,0.7v1c0,0.4,0.3,0.7,0.7,0.7s0.7-0.3,0.7-0.7V276.6z"/>
				<path class="st0" d="M458.8,268.1c0.3-0.1,0.5-0.4,0.5-0.7v-18.2c0-0.4-0.3-0.7-0.7-0.7h-18.2c-0.3,0-0.6,0.2-0.7,0.5
					c-0.1,0.3-0.1,0.6,0.2,0.8l3.3,3.3l-4.6,8c-0.2,0.3-0.1,0.8,0.2,1c2.8,1.7,5.2,4.1,6.9,6.9c2.2,3.4,3.3,7.4,3.3,11.5
					c0,4.1-1.1,8.1-3.3,11.5c-1.7,2.8-4.1,5.2-6.9,6.9c-0.3,0.2-0.4,0.6-0.2,1l4.6,8l-3.3,3.3c-0.2,0.2-0.3,0.5-0.2,0.8
					c0.1,0.3,0.4,0.5,0.7,0.5h18.2c0.4,0,0.7-0.3,0.7-0.7v-18.2c0-0.3-0.2-0.6-0.5-0.7c-0.3-0.1-0.6-0.1-0.8,0.2l-3.3,3.3l-7.4-4.3
					c2.1-3.5,3.2-7.5,3.2-11.7c0-4.1-1.1-8.1-3.2-11.7l7.4-4.3l3.3,3.3C458.2,268.1,458.5,268.2,458.8,268.1z M454.4,298
					c0.3,0.2,0.6,0.1,0.9-0.1l2.5-2.5V311h-15.7l2.5-2.5c0.2-0.2,0.3-0.6,0.1-0.9l-4.6-7.9c2.5-1.7,4.7-3.9,6.4-6.4L454.4,298z
					 M457.8,265.6l-2.5-2.5c-0.2-0.3-0.6-0.3-0.9-0.1l-7.9,4.6c-1.7-2.5-3.9-4.7-6.4-6.4l4.6-7.9c0.2-0.3,0.1-0.7-0.1-0.9l-2.5-2.5
					h15.7V265.6z"/>
				<path class="st0" d="M415.7,298.9c-2.8-1.7-5.2-4.1-6.9-6.9c-2.2-3.4-3.3-7.4-3.3-11.5c0-4.1,1.2-8.1,3.3-11.5
					c1.7-2.8,4.1-5.2,6.9-6.9c0.3-0.2,0.4-0.6,0.2-1l-4.6-8l3.3-3.3c0.2-0.2,0.3-0.5,0.2-0.8c-0.1-0.3-0.4-0.5-0.7-0.5H396
					c-0.4,0-0.7,0.3-0.7,0.7v18.2c0,0.3,0.2,0.6,0.5,0.7c0.3,0.1,0.6,0.1,0.8-0.2l3.3-3.3l7.4,4.3c-2.1,3.5-3.2,7.5-3.2,11.7
					s1.1,8.1,3.2,11.7l-7.4,4.3l-3.3-3.3c-0.2-0.2-0.5-0.3-0.8-0.2c-0.3,0.1-0.5,0.4-0.5,0.7v18.2c0,0.4,0.3,0.7,0.7,0.7h18.2
					c0.3,0,0.6-0.2,0.7-0.5c0.1-0.3,0.1-0.6-0.2-0.8l-3.3-3.3l4.6-8C416.2,299.6,416.1,299.1,415.7,298.9z M400.1,263
					c-0.1-0.1-0.2-0.1-0.4-0.1c-0.2,0-0.4,0.1-0.5,0.2l-2.5,2.5V250h15.7l-2.5,2.5c-0.2,0.2-0.3,0.6-0.1,0.9l4.6,7.9
					c-2.5,1.7-4.7,3.9-6.4,6.4L400.1,263z M409.8,307.7c-0.2,0.3-0.1,0.6,0.1,0.9l2.5,2.5h-15.7v-15.7l2.5,2.5
					c0.2,0.2,0.6,0.3,0.9,0.1l7.9-4.6c1.7,2.5,3.9,4.7,6.4,6.4L409.8,307.7z"/>
			</g>
			<g>
				<ellipse class="st1" cx="427.3" cy="258.7" rx="4.6" ry="4.9"/>
				<path class="st1" d="M415.3,285.1c0,1.5,1.2,2.6,2.6,2.6c1.5,0,2.6-1.2,2.6-2.6v-2.2h-5.3V285.1z"/>
				<path class="st1" d="M434,282.9v2.2c0,1.5,1.2,2.6,2.6,2.6c1.5,0,2.6-1.2,2.6-2.6v-2.2H434z"/>
			</g>
		</g>
		<g>
			<g>
				<path class="st4" d="M67.7,382.5c-6.5,0-11.7,5.2-11.7,11.7c0,4.3,2.4,8.1,5.9,10.1v21.5l5.9,5.9l5.9-5.9l-2.9-2.9l2.9-2.9
					c0,0-2.9-2.9-2.9-2.9l2.9-2.9l-2.9-2.9l2.9-2.9v-3.9c3.5-2,5.9-5.8,5.9-10.1C79.4,387.8,74.2,382.5,67.7,382.5z M67.7,399.1
					c-2.7,0-4.9-2.2-4.9-4.9c0-2.7,2.2-4.9,4.9-4.9c2.7,0,4.9,2.2,4.9,4.9C72.6,396.9,70.4,399.1,67.7,399.1z"/>
				<path class="st4" d="M48.5,368.4H36.8c-0.4,0-0.7,0.3-0.7,0.7v11.7c0,0.3,0.2,0.6,0.5,0.7c0.1,0,0.2,0.1,0.3,0.1
					c0.2,0,0.4-0.1,0.5-0.2L49,369.7c0.2-0.2,0.3-0.5,0.2-0.8C49,368.6,48.8,368.4,48.5,368.4z"/>
			</g>
			<g>
				<polygon class="st1" points="36.8,431.4 48.5,431.4 36.8,419.6 				"/>
				<path class="st1" d="M99.3,368.7H87.6c-0.3,0-0.6,0.2-0.7,0.5c-0.1,0.3-0.1,0.6,0.2,0.8l11.7,11.7c0.1,0.1,0.3,0.2,0.5,0.2
					c0.1,0,0.2,0,0.3-0.1c0.3-0.1,0.5-0.4,0.5-0.7v-11.7C100,369.1,99.7,368.7,99.3,368.7z"/>
			</g>
			<g>
				<path class="st0" d="M66.7,404.6c-0.4,0-0.7,0.3-0.7,0.7v11.1c0,0.4,0.3,0.7,0.7,0.7s0.7-0.3,0.7-0.7v-11.1
					C67.4,404.9,67.1,404.6,66.7,404.6z"/>
				<path class="st0" d="M66.7,419.6c-0.4,0-0.7,0.3-0.7,0.7v3.5c0,0.4,0.3,0.7,0.7,0.7s0.7-0.3,0.7-0.7v-3.5
					C67.4,419.9,67.1,419.6,66.7,419.6z"/>
				<path class="st0" d="M67.7,388.6c-3.1,0-5.6,2.5-5.6,5.6c0,3.1,2.5,5.6,5.6,5.6c3.1,0,5.6-2.5,5.6-5.6
					C73.3,391.1,70.8,388.6,67.7,388.6z M67.7,398.4c-2.3,0-4.2-1.9-4.2-4.2s1.9-4.2,4.2-4.2c2.3,0,4.2,1.9,4.2,4.2
					S70,398.4,67.7,398.4z"/>
				<path class="st0" d="M67.7,381.8c-6.9,0-12.5,5.6-12.5,12.5c0,4.3,2.2,8.3,5.9,10.6v21c0,0.2,0.1,0.4,0.2,0.5l5.9,5.9
					c0.1,0.1,0.3,0.2,0.5,0.2s0.4-0.1,0.5-0.2l5.9-5.9c0.3-0.3,0.3-0.8,0-1l-2.4-2.4l2.4-2.4c0.1-0.1,0.2-0.3,0.2-0.5
					c0-0.3,0-0.3-2.6-2.9l2.4-2.4c0.3-0.3,0.3-0.8,0-1l-2.4-2.4l2.4-2.4c0.1-0.1,0.2-0.3,0.2-0.5v-3.5c3.6-2.3,5.9-6.3,5.9-10.6
					C80.1,387.4,74.6,381.8,67.7,381.8z M73.2,403.7c-0.2,0.1-0.4,0.4-0.4,0.6v3.6l-2.7,2.7c-0.3,0.3-0.3,0.8,0,1l2.4,2.4l-2.4,2.4
					c-0.3,0.3-0.3,0.8,0,1c0,0,1.6,1.6,2.4,2.4l-2.4,2.4c-0.3,0.3-0.3,0.8,0,1l2.4,2.4l-4.8,4.8l-5.1-5.1v-21.2
					c0-0.3-0.1-0.5-0.4-0.6c-3.4-2-5.5-5.6-5.5-9.5c0-6.1,4.9-11,11-11c6.1,0,11,4.9,11,11C78.7,398.1,76.6,401.8,73.2,403.7z"/>
				<path class="st0" d="M93.5,419.9c0.6-3,0.2-7.5,0-9.1c1-0.4,3-1.3,4.9-2.4c0.9-0.5,1.5-1.3,1.6-2.1c0.2-1.4-0.6-2.6-1.2-3.3
					c-4.2-4.9-5.2-8.3-5.3-8.8c0-14.2-11.6-25.7-25.8-25.7c-14.2,0-25.8,11.6-25.8,25.8c0,4.5,1.2,9,3.4,12.9c0,0,0,0,0,0
					c0.8,1.4,1.7,2.8,2.5,4.1c1.5,2.4,2.9,4.6,3.7,6.4c1.9,4.1,2,14,2,14.1c0,0.4,0.3,0.7,0.7,0.7c0,0,0,0,0,0
					c0.4,0,0.7-0.3,0.7-0.7c0-0.4-0.1-10.3-2.1-14.7c-0.9-1.9-2.3-4.2-3.8-6.5c-0.8-1.4-1.7-2.8-2.5-4.1c0,0,0,0,0,0
					c-2.1-3.7-3.2-7.8-3.2-12.1c0-13.4,10.9-24.4,24.4-24.4s24.4,10.9,24.4,24.4c0,0,0,0.1,0,0.1c0,0.2,0.8,3.9,5.6,9.5
					c0.2,0.3,1,1.2,0.8,2.1c-0.1,0.4-0.4,0.8-0.9,1.1c-2.4,1.4-5.2,2.5-5.2,2.5c-0.3,0.1-0.5,0.4-0.5,0.8c0,0.1,0.8,5.8,0.1,9.2
					c-0.4,1.9-4.7,2.6-8.3,2.6c-2.4,0-4,1.5-4,3.9v5.6c0,0.4,0.3,0.7,0.7,0.7c0.4,0,0.7-0.3,0.7-0.7v-5.6c0-1.5,0.9-2.4,2.5-2.4
					C87.1,423.6,92.8,423.2,93.5,419.9z"/>
				<path class="st0" d="M82.9,405.7c0.2-0.3,0.2-0.8-0.1-1s-0.8-0.2-1,0.1c-0.8,1.1-1.8,2.1-2.8,2.9c-0.3,0.3-0.4,0.7-0.1,1
					c0.1,0.2,0.4,0.3,0.6,0.3c0.2,0,0.3-0.1,0.5-0.2C81,407.9,82,406.8,82.9,405.7z"/>
				<path class="st0" d="M85.2,395.9c-0.1,1.3-0.4,2.7-0.9,4c-0.1,0.4,0.1,0.8,0.5,0.9c0.1,0,0.2,0,0.2,0c0.3,0,0.6-0.2,0.7-0.5
					c0.5-1.4,0.8-2.8,0.9-4.3c0-0.4-0.3-0.8-0.7-0.8C85.6,395.2,85.2,395.5,85.2,395.9z"/>
				<path class="st0" d="M67.7,375.2c-2.4,0-4.8,0.4-7,1.3c-0.4,0.1-0.6,0.6-0.4,1c0.1,0.4,0.6,0.6,1,0.4c2.1-0.8,4.2-1.2,6.5-1.2
					c8.3,0,15.5,5.9,17.2,13.9c0.1,0.3,0.4,0.6,0.7,0.6c0.1,0,0.1,0,0.2,0c0.4-0.1,0.6-0.5,0.6-0.9
					C84.5,381.5,76.6,375.2,67.7,375.2z"/>
				<path class="st0" d="M39,406.5c0.1,0,0.2,0,0.3-0.1c0.4-0.2,0.6-0.6,0.4-1c-1.4-3.6-2.2-7.4-2.2-11.2c0-2.9,0.4-5.7,1.2-8.4
					c0.1-0.4-0.1-0.8-0.5-0.9c-0.4-0.1-0.8,0.1-0.9,0.5c-0.8,2.9-1.2,5.8-1.2,8.8c0,4.1,0.8,8,2.3,11.8
					C38.4,406.3,38.7,406.5,39,406.5z"/>
				<path class="st0" d="M44,415.2c0.1,0.2,0.3,0.2,0.5,0.2c0.2,0,0.3-0.1,0.5-0.2c0.3-0.3,0.3-0.7,0.1-1c-1-1.2-2-2.4-2.8-3.7
					c-0.2-0.3-0.7-0.4-1-0.2c-0.3,0.2-0.4,0.7-0.2,1C41.9,412.7,42.9,414,44,415.2z"/>
				<path class="st0" d="M37.3,419.1c-0.2-0.2-0.5-0.3-0.8-0.2c-0.3,0.1-0.5,0.4-0.5,0.7v11.7c0,0.4,0.3,0.7,0.7,0.7h11.7
					c0.3,0,0.6-0.2,0.7-0.5s0.1-0.6-0.2-0.8L37.3,419.1z M37.5,430.6v-9.2l9.2,9.2H37.5z"/>
				<path class="st0" d="M99.6,419.3c-0.3-0.1-0.6-0.1-0.8,0.2L87,431.2c-0.2,0.2-0.3,0.5-0.2,0.8c0.1,0.3,0.4,0.5,0.7,0.5h11.7
					c0.4,0,0.7-0.3,0.7-0.7V420C100,419.7,99.8,419.4,99.6,419.3z M98.6,431h-9.2l9.2-9.2V431z"/>
			</g>
		</g>
		<g>
			<g>
				<polygon class="st1" points="166,375 171.9,389.7 203.2,389.7 209,375 				"/>
				<rect x="158.2" y="415.1" class="st1" width="14.7" height="16.6"/>
			</g>
			<g>
				<rect x="178.7" y="409.2" class="st4" width="17.6" height="22.5"/>
				<path class="st4" d="M201.2,404.3h4.9c1.6,0,2.9-1.3,2.9-2.9v-4.9C204.7,396.5,201.2,400,201.2,404.3z"/>
				<path class="st4" d="M166,396.5v4.9c0,1.6,1.3,2.9,2.9,2.9h4.9C173.9,400,170.4,396.5,166,396.5z"/>
				<path class="st4" d="M184.6,392.6h5.9c1.1,0,2-0.9,2-2v-3.9h-9.8v3.9C182.6,391.7,183.5,392.6,184.6,392.6z"/>
			</g>
			<g>
				<path class="st0" d="M169,405.1h37.1c2,0,3.7-1.6,3.7-3.7V375c0-0.4-0.3-0.7-0.7-0.7h-12v-1.2c0-2.6-2.1-4.6-4.6-4.6h-9.8
					c-2.6,0-4.6,2.1-4.6,4.6v1.2h-12c-0.4,0-0.7,0.3-0.7,0.7v26.4C165.3,403.4,166.9,405.1,169,405.1z M206.1,403.6H169
					c-1.2,0-2.2-1-2.2-2.2v-22.6l4.4,11.1c0.1,0.3,0.4,0.5,0.7,0.5h10v0.2c0,1.5,1.2,2.7,2.7,2.7h5.9c1.5,0,2.7-1.2,2.7-2.7v-0.2h10
					c0.3,0,0.6-0.2,0.7-0.5l4.5-11.1v22.6C208.3,402.6,207.3,403.6,206.1,403.6z M183.4,390.7v-3.2h8.3v3.2c0,0.7-0.5,1.2-1.2,1.2
					h-5.9C183.9,391.9,183.4,391.3,183.4,390.7z M179.5,373.1c0-1.8,1.4-3.2,3.2-3.2h9.8c1.8,0,3.2,1.4,3.2,3.2v1.2h-16.1V373.1z
					 M207.9,375.8l-5.3,13.2h-9.5v-2.2c0-0.4-0.3-0.7-0.7-0.7h-9.8c-0.4,0-0.7,0.3-0.7,0.7v2.2h-9.5l-5.3-13.2H207.9z"/>
				<path class="st0" d="M190.5,429.5c0.4,0,0.7-0.3,0.7-0.7v-16.6c0-0.4-0.3-0.7-0.7-0.7c-0.4,0-0.7,0.3-0.7,0.7v16.6
					C189.7,429.2,190.1,429.5,190.5,429.5z"/>
				<path class="st0" d="M184.6,429.5c0.4,0,0.7-0.3,0.7-0.7v-16.6c0-0.4-0.3-0.7-0.7-0.7s-0.7,0.3-0.7,0.7v16.6
					C183.9,429.2,184.2,429.5,184.6,429.5z"/>
				<path class="st0" d="M198.3,408.5h-21.5c-0.4,0-0.7,0.3-0.7,0.7s0.3,0.7,0.7,0.7h1.2v21.7c0,0.4,0.3,0.7,0.7,0.7h17.6
					c0.4,0,0.7-0.3,0.7-0.7V410h1.2c0.4,0,0.7-0.3,0.7-0.7S198.7,408.5,198.3,408.5z M195.6,431h-16.1v-21h16.1V431z"/>
				<path class="st0" d="M168,429.5c0.4,0,0.7-0.3,0.7-0.7V418c0-0.4-0.3-0.7-0.7-0.7s-0.7,0.3-0.7,0.7v10.7
					C167.3,429.2,167.6,429.5,168,429.5z"/>
				<path class="st0" d="M163.1,429.5c0.4,0,0.7-0.3,0.7-0.7V418c0-0.4-0.3-0.7-0.7-0.7s-0.7,0.3-0.7,0.7v10.7
					C162.4,429.2,162.7,429.5,163.1,429.5z"/>
				<path class="st0" d="M174.8,414.3h-18.6c-0.4,0-0.7,0.3-0.7,0.7s0.3,0.7,0.7,0.7h1.2v15.9c0,0.4,0.3,0.7,0.7,0.7h14.7
					c0.4,0,0.7-0.3,0.7-0.7v-15.9h1.2c0.4,0,0.7-0.3,0.7-0.7S175.2,414.3,174.8,414.3z M172.1,431H159v-15.1h13.2V431z"/>
				<path class="st0" d="M212,429.5c0.4,0,0.7-0.3,0.7-0.7v-4.9c0-0.4-0.3-0.7-0.7-0.7c-0.4,0-0.7,0.3-0.7,0.7v4.9
					C211.2,429.2,211.6,429.5,212,429.5z"/>
				<path class="st0" d="M207.1,429.5c0.4,0,0.7-0.3,0.7-0.7v-4.9c0-0.4-0.3-0.7-0.7-0.7s-0.7,0.3-0.7,0.7v4.9
					C206.3,429.2,206.7,429.5,207.1,429.5z"/>
				<path class="st0" d="M218.8,420.2h-18.6c-0.4,0-0.7,0.3-0.7,0.7c0,0.4,0.3,0.7,0.7,0.7h1.2v10c0,0.4,0.3,0.7,0.7,0.7h14.7
					c0.4,0,0.7-0.3,0.7-0.7v-10h1.2c0.4,0,0.7-0.3,0.7-0.7C219.5,420.5,219.2,420.2,218.8,420.2z M216.1,431h-13.2v-9.3h13.2V431z"
					/>
				<path class="st0" d="M158.2,408c0.4,0,0.7-0.3,0.7-0.7v-14.7c0-0.4-0.3-0.7-0.7-0.7c-0.4,0-0.7,0.3-0.7,0.7v14.7
					C157.5,407.7,157.8,408,158.2,408z"/>
				<path class="st0" d="M158.2,389.4c0.4,0,0.7-0.3,0.7-0.7v-2.9c0-0.4-0.3-0.7-0.7-0.7c-0.4,0-0.7,0.3-0.7,0.7v2.9
					C157.5,389.1,157.8,389.4,158.2,389.4z"/>
				<path class="st0" d="M206.1,369.9h10v14.9c0,0.4,0.3,0.7,0.7,0.7s0.7-0.3,0.7-0.7v-15.6c0-0.4-0.3-0.7-0.7-0.7h-10.8
					c-0.4,0-0.7,0.3-0.7,0.7C205.4,369.6,205.7,369.9,206.1,369.9z"/>
				<path class="st0" d="M216.9,388c-0.4,0-0.7,0.3-0.7,0.7v2.9c0,0.4,0.3,0.7,0.7,0.7s0.7-0.3,0.7-0.7v-2.9
					C217.6,388.3,217.3,388,216.9,388z"/>
			</g>
		</g>
		<g>
			<g>
				<polygon class="st1" points="298.1,390.7 298.1,380.9 288.3,390.7 				"/>
				<path class="st1" d="M316.6,389.7c-8.6,0-15.6,7-15.6,15.6c0,8.6,7,15.6,15.6,15.6c8.6,0,15.6-7,15.6-15.6
					C332.3,396.7,325.3,389.7,316.6,389.7z M316.6,415.6c-5.7,0-10.3-4.6-10.3-10.3c0-5.7,4.6-10.3,10.3-10.3
					c5.7,0,10.3,4.6,10.3,10.3C326.9,411,322.3,415.6,316.6,415.6z"/>
			</g>
			<g>
				<path class="st4" d="M282.5,425.8h5.9v-35.2c3.8-3.8,6-6,9.8-9.8h21.5V375h-37.1V425.8z"/>
				<path class="st4" d="M338.5,422.6l-4.9-4.9l-0.2,0.2l-3.8-3.8l-4.1,4.1l3.8,3.8l-0.2,0.2l4.9,4.9c0.8,0.8,2,0.8,2.8,0l1.8-1.8
					C339.2,424.6,339.2,423.3,338.5,422.6z"/>
			</g>
			<g>
				<path class="st0" d="M277.3,369.9H313v5.1h1.5v-5.9c0-0.4-0.3-0.7-0.7-0.7h-37.1c-0.4,0-0.7,0.3-0.7,0.7V420
					c0,0.4,0.3,0.7,0.7,0.7h5.9v-1.5h-5.1V369.9z"/>
				<path class="st0" d="M301.8,391.4h3.1c0.4,0,0.7-0.3,0.7-0.7c0-0.4-0.3-0.7-0.7-0.7h-3.1c-0.4,0-0.7,0.3-0.7,0.7
					C301.1,391.1,301.4,391.4,301.8,391.4z"/>
				<path class="st0" d="M301.8,386.5h11.9c0.4,0,0.7-0.3,0.7-0.7c0-0.4-0.3-0.7-0.7-0.7h-11.9c-0.4,0-0.7,0.3-0.7,0.7
					C301.1,386.2,301.4,386.5,301.8,386.5z"/>
				<path class="st0" d="M292.2,396.3h2c0.4,0,0.7-0.3,0.7-0.7s-0.3-0.7-0.7-0.7h-2c-0.4,0-0.7,0.3-0.7,0.7S291.8,396.3,292.2,396.3
					z"/>
				<path class="st0" d="M300,396.3c0.4,0,0.7-0.3,0.7-0.7s-0.3-0.7-0.7-0.7h-2c-0.4,0-0.7,0.3-0.7,0.7s0.3,0.7,0.7,0.7H300z"/>
				<path class="st0" d="M292.2,401.2h5.9c0.4,0,0.7-0.3,0.7-0.7s-0.3-0.7-0.7-0.7h-5.9c-0.4,0-0.7,0.3-0.7,0.7
					S291.8,401.2,292.2,401.2z"/>
				<path class="st0" d="M292.2,406h3.9c0.4,0,0.7-0.3,0.7-0.7c0-0.4-0.3-0.7-0.7-0.7h-3.9c-0.4,0-0.7,0.3-0.7,0.7
					C291.5,405.7,291.8,406,292.2,406z"/>
				<path class="st0" d="M292.2,410.9h5.9c0.4,0,0.7-0.3,0.7-0.7c0-0.4-0.3-0.7-0.7-0.7h-5.9c-0.4,0-0.7,0.3-0.7,0.7
					C291.5,410.6,291.8,410.9,292.2,410.9z"/>
				<path class="st0" d="M300.8,415.1c0-0.4-0.3-0.7-0.7-0.7h-7.8c-0.4,0-0.7,0.3-0.7,0.7s0.3,0.7,0.7,0.7h7.8
					C300.4,415.8,300.8,415.5,300.8,415.1z"/>
				<path class="st0" d="M294.2,419.2h-2c-0.4,0-0.7,0.3-0.7,0.7s0.3,0.7,0.7,0.7h2c0.4,0,0.7-0.3,0.7-0.7S294.6,419.2,294.2,419.2z
					"/>
				<path class="st0" d="M297.4,420c0,0.4,0.3,0.7,0.7,0.7h5.9c0.4,0,0.7-0.3,0.7-0.7s-0.3-0.7-0.7-0.7h-5.9
					C297.7,419.2,297.4,419.6,297.4,420z"/>
				<path class="st0" d="M294.2,424.1h-2c-0.4,0-0.7,0.3-0.7,0.7c0,0.4,0.3,0.7,0.7,0.7h2c0.4,0,0.7-0.3,0.7-0.7
					C294.9,424.5,294.6,424.1,294.2,424.1z"/>
				<path class="st0" d="M298.1,425.6h14.7c0.4,0,0.7-0.3,0.7-0.7c0-0.4-0.3-0.7-0.7-0.7h-14.7c-0.4,0-0.7,0.3-0.7,0.7
					C297.4,425.3,297.7,425.6,298.1,425.6z"/>
				<path class="st0" d="M334.1,417.2c-0.3-0.3-0.8-0.3-1,0l-4.6,4.6c-0.3,0.3-0.3,0.8,0,1l4.9,4.9c0.5,0.5,1.2,0.8,1.9,0.8
					s1.4-0.3,1.9-0.8l1.8-1.8c1-1,1-2.8,0-3.8L334.1,417.2z M337.9,424.8l-1.8,1.8c-0.5,0.5-1.3,0.5-1.7,0l-4.4-4.4l3.5-3.5l4.4,4.4
					C338.4,423.6,338.4,424.3,337.9,424.8z"/>
				<path class="st0" d="M327.6,405.3c0-6.1-4.9-11-11-11c-6.1,0-11,4.9-11,11c0,6.1,4.9,11,11,11
					C322.7,416.3,327.6,411.4,327.6,405.3z M312.9,406.1c-0.3-0.3-0.8-0.2-1,0.1c-0.7,0.8-1,1.8-1,2.9l0,3.7
					c-2.2-1.7-3.7-4.5-3.7-7.5c0-5.3,4.3-9.5,9.5-9.5s9.5,4.3,9.5,9.5c0,3-1.4,5.7-3.7,7.5v-3.7c0-1-0.4-2.1-1-2.9
					c-0.3-0.3-0.7-0.4-1-0.1c-0.3,0.3-0.4,0.7-0.1,1c0.5,0.6,0.7,1.2,0.7,2v4.6c-1.3,0.7-2.8,1.1-4.4,1.1c-1.6,0-3.1-0.4-4.4-1.1
					l0-4.6c0-0.7,0.2-1.4,0.7-2C313.2,406.8,313.2,406.4,312.9,406.1z"/>
				<path class="st0" d="M316.7,406.5c1.9,0,3.4-1.5,3.4-3.4c0-1.9-1.5-3.4-3.4-3.4c-1.9,0-3.4,1.5-3.4,3.4
					C313.2,405,314.8,406.5,316.7,406.5z M316.7,401.1c1.1,0,2,0.9,2,2s-0.9,2-2,2c-1.1,0-2-0.9-2-2S315.6,401.1,316.7,401.1z"/>
				<path class="st0" d="M316.7,423.6c0.4,0,0.7-0.3,0.7-0.7v-1.3c8.4-0.4,15.2-7.2,15.6-15.6h1.3c0.4,0,0.7-0.3,0.7-0.7
					c0-0.4-0.3-0.7-0.7-0.7H333c-0.2-5.2-2.9-9.7-6.8-12.5v-11.2c0-0.4-0.3-0.7-0.7-0.7h-27.4c-0.2,0-0.4,0.1-0.5,0.2l-9.8,9.8
					c-0.1,0.1-0.2,0.3-0.2,0.5v41c0,0.4,0.3,0.7,0.7,0.7h37.1c0.4,0,0.7-0.3,0.7-0.7v-8.4c0-0.4-0.3-0.7-0.7-0.7
					c-0.4,0-0.7,0.3-0.7,0.7v7.7H289v-39.6h9c0.4,0,0.7-0.3,0.7-0.7v-9h25.9v9.5c-2.2-1.2-4.7-2-7.3-2.1v-1.3c0-0.4-0.3-0.7-0.7-0.7
					c-0.4,0-0.7,0.3-0.7,0.7v1.3c-8.4,0.4-15.2,7.2-15.6,15.6h-1.3c-0.4,0-0.7,0.3-0.7,0.7c0,0.4,0.3,0.7,0.7,0.7h1.3
					c0.4,8.4,7.2,15.2,15.6,15.6v1.3C315.9,423.3,316.2,423.6,316.7,423.6z M297.4,389.9h-7.3l7.3-7.3V389.9z M301.8,406h1.2
					c0.4,0,0.7-0.3,0.7-0.7c0-0.4-0.3-0.7-0.7-0.7h-1.2c0.4-7.6,6.5-13.8,14.1-14.1v1.2c0,0.4,0.3,0.7,0.7,0.7
					c0.4,0,0.7-0.3,0.7-0.7v-1.2c7.6,0.4,13.8,6.5,14.1,14.1h-1.2c-0.4,0-0.7,0.3-0.7,0.7c0,0.4,0.3,0.7,0.7,0.7h1.2
					c-0.4,7.6-6.5,13.8-14.1,14.1V419c0-0.4-0.3-0.7-0.7-0.7c-0.4,0-0.7,0.3-0.7,0.7v1.2C308.3,419.8,302.2,413.7,301.8,406z"/>
				<path class="st0" d="M339.1,407.3c-0.4,0-0.7,0.3-0.7,0.7v4.1c0,0.4,0.3,0.7,0.7,0.7c0.4,0,0.7-0.3,0.7-0.7v-4.1
					C339.9,407.7,339.5,407.3,339.1,407.3z"/>
				<path class="st0" d="M339.1,388.9c-0.4,0-0.7,0.3-0.7,0.7v12.5c0,0.4,0.3,0.7,0.7,0.7c0.4,0,0.7-0.3,0.7-0.7v-12.5
					C339.9,389.3,339.5,388.9,339.1,388.9z"/>
				<path class="st0" d="M339.1,368.4h-15.6c-0.4,0-0.7,0.3-0.7,0.7c0,0.4,0.3,0.7,0.7,0.7h14.9v13.9c0,0.4,0.3,0.7,0.7,0.7
					c0.4,0,0.7-0.3,0.7-0.7v-14.7C339.9,368.8,339.5,368.4,339.1,368.4z"/>
			</g>
		</g>
		<g>
			<g>
				<ellipse class="st4" cx="444" cy="405.5" rx="8.8" ry="9.8"/>
				<polygon class="st4" points="410.2,415 412,423.7 419.4,418.7 426.9,423.7 428.7,415 419.4,418.7 				"/>
			</g>
			<path class="st1" d="M425.7,411.5l-0.5-2.7c3.2-2.4,5.4-6.7,5.4-11.6c0-0.9-0.1-1.8-0.2-2.7c-2.6,0.7-6.7,1.2-10.9-0.3
				c-4.6-1.7-8.5-1.3-10.6-0.7c-0.3,1.1-0.5,2.4-0.5,3.7c0,4.9,2.1,9.2,5.4,11.6l-0.5,2.7c-0.4,1.6-1.5,2.9-2.9,3.5l9.2,3.7l9.2-3.7
				C427.2,414.4,426.1,413.1,425.7,411.5z"/>
			<g>
				<path class="st0" d="M445.5,386.9c0.3-0.9,1-3,2.9-4.8c1.1-1.1,1.6-2.4,1.1-3.7c-0.5-1.5-2.1-2.6-4.2-3.1l1.4-2.4
					c0.2-0.3,0.1-0.7-0.2-0.9c-7.2-6.1-16.5-2.6-16.9-2.4c-0.4,0.1-0.6,0.6-0.4,0.9l1.1,2.9c-2.3,0.3-4.1,1.4-4.8,3
					c-0.6,1.7,0,3.5,1.8,5.1c2.4,2.2,3.4,4.4,3.7,5.3c-0.9,0.5-1.8,1.1-2.7,1.9c-2.1-2.4-5.2-3.8-9-3.8c-7.1,0-11.9,4.9-11.9,12.2
					c0,5,2.2,9.4,5.4,12l-0.5,2.1c-0.3,1.3-1.3,2.4-2.5,3h0c-0.3,0.2-0.7,0.3-1.1,0.3l-6.5,1.1c-4.1,0.7-7.1,4.3-7.1,8.4v7.5
					c0,0.4,0.3,0.7,0.7,0.7s0.7-0.3,0.7-0.7v-7.5c0-3.5,2.5-6.4,5.9-7l6.5-1.1c0.2,0,0.4-0.1,0.6-0.1l1.6,7.9c0,0.2,0.2,0.4,0.4,0.5
					c0.1,0,0.2,0.1,0.3,0.1c0.1,0,0.3,0,0.4-0.1l3.3-2.2l0.8,2.4l-2.1,6.9c-0.1,0.4,0.1,0.8,0.5,0.9c0.1,0,0.1,0,0.2,0
					c0.3,0,0.6-0.2,0.7-0.5l2-6.6h3.3l2,6.6c0.1,0.3,0.4,0.5,0.7,0.5c0.1,0,0.1,0,0.2,0c0.4-0.1,0.6-0.5,0.5-0.9l-2.1-6.9l0.8-2.4
					l3.3,2.2c0.1,0.1,0.3,0.1,0.4,0.1c0.1,0,0.2,0,0.3-0.1c0.2-0.1,0.4-0.3,0.4-0.5l1.6-7.9c0.2,0.1,0.4,0.1,0.6,0.1l6.5,1.1
					c3.4,0.6,5.9,3.5,5.9,7v7.5c0,0.4,0.3,0.7,0.7,0.7s0.7-0.3,0.7-0.7v-3.6c9.8-1.6,15.6-6.8,15.6-14.2
					C459.2,406.2,453.4,391.4,445.5,386.9z M428.3,380.5c-1.3-1.2-1.8-2.4-1.4-3.5c0.5-1.2,2-2,3.9-2.1l1.9,4.8
					c0.1,0.4,0.6,0.6,0.9,0.4c0.4-0.1,0.6-0.6,0.4-0.9l-3.2-8.4c2.1-0.6,8.8-2.2,14.2,2l-5.1,9c-0.2,0.4-0.1,0.8,0.3,1
					c0.1,0.1,0.2,0.1,0.4,0.1c0.3,0,0.5-0.1,0.6-0.4l3.3-5.9c1.8,0.3,3.2,1.1,3.6,2.2c0.3,0.9-0.2,1.7-0.7,2.1
					c-2.4,2.2-3.2,4.9-3.4,5.8c-2.4,1.6-8.8,1.8-11.4,0C432.3,385.9,431.3,383.1,428.3,380.5z M419.4,386.5c5.2,0,8.9,2.8,10,7.5
					c-2.6,0.6-6.1,0.9-9.8-0.5c-4-1.5-7.3-1.4-9.8-1C411.4,388.8,414.8,386.5,419.4,386.5z M409,397.2c0-1.1,0.1-2.1,0.4-3.1
					c2.3-0.5,5.7-0.7,9.8,0.8c3.9,1.4,7.8,1.1,10.5,0.5c0.1,0.6,0.1,1.2,0.1,1.8c0,7.1-4.7,12.8-10.4,12.8S409,404.3,409,397.2z
					 M413.9,411.7l0.4-1.6c1.6,0.9,3.3,1.4,5.2,1.4s3.6-0.5,5.2-1.4l0.4,1.6c0.3,1.3,1,2.4,2,3.2l-7.6,3l-7.6-3
					C412.8,414.1,413.6,413,413.9,411.7z M412.5,422.5l-1.3-6.3l2,0.8l4.6,1.9L412.5,422.5z M421.1,423.8h-3.3l-0.9-2.5l2.5-1.7
					l2.5,1.7L421.1,423.8z M426.4,422.5l-5.4-3.6l6.7-2.7L426.4,422.5z M443.6,426.6v-2.4c0-4.2-3-7.7-7.1-8.4l-6.5-1.1
					c-0.4-0.1-0.7-0.2-1.1-0.3h0c-1.3-0.6-2.2-1.7-2.5-3l-0.5-2.1c3.3-2.6,5.4-7,5.4-12c0-2.8-0.7-5.3-2-7.2
					c0.9-0.8,1.8-1.4,2.6-1.9c1.5,0.9,3.9,1.4,6.3,1.4s4.9-0.5,6.4-1.4c7.3,4.1,13.1,18.3,13.1,25.8
					C457.8,420.4,452.5,425.1,443.6,426.6z"/>
				<path class="st0" d="M433.1,424.8c-0.4,0-0.7,0.3-0.7,0.7v6.2c0,0.4,0.3,0.7,0.7,0.7c0.4,0,0.7-0.3,0.7-0.7v-6.2
					C433.9,425.1,433.5,424.8,433.1,424.8z"/>
				<path class="st0" d="M405.8,424.8c-0.4,0-0.7,0.3-0.7,0.7v6.2c0,0.4,0.3,0.7,0.7,0.7c0.4,0,0.7-0.3,0.7-0.7v-6.2
					C406.5,425.1,406.2,424.8,405.8,424.8z"/>
				<path class="st0" d="M445.9,404.8c-1.1,0-1.6-0.4-1.6-1.4c0-0.7,0.7-1.4,1.6-1.4c0.7,0,1.2,0.4,1.5,0.9c0.2,0.4,0.6,0.5,1,0.4
					c0.4-0.2,0.5-0.6,0.4-1c-0.4-0.9-1.1-1.5-2.1-1.7v-0.5c0-0.4-0.3-0.7-0.7-0.7c-0.4,0-0.7,0.3-0.7,0.7v0.5
					c-1.3,0.3-2.3,1.4-2.3,2.7c0,1.7,1.2,2.8,3,2.8c1,0,1.6,0.5,1.6,1.4c0,0.7-0.7,1.4-1.6,1.4c-0.7,0-1.2-0.4-1.5-0.9
					c-0.2-0.4-0.6-0.5-1-0.4c-0.4,0.2-0.5,0.6-0.4,1c0.4,0.9,1.1,1.5,2.1,1.7v0.5c0,0.4,0.3,0.7,0.7,0.7c0.4,0,0.7-0.3,0.7-0.7v-0.5
					c1.3-0.3,2.3-1.4,2.3-2.7C449,405.9,447.8,404.8,445.9,404.8z"/>
				<path class="st0" d="M408.5,369.9H425c0.4,0,0.7-0.3,0.7-0.7s-0.3-0.7-0.7-0.7h-16.6c-0.4,0-0.7,0.3-0.7,0.7
					S408.1,369.9,408.5,369.9z"/>
				<path class="st0" d="M396,399.6c0.4,0,0.7-0.3,0.7-0.7v-28.9h6.8c0.4,0,0.7-0.3,0.7-0.7s-0.3-0.7-0.7-0.7H396
					c-0.4,0-0.7,0.3-0.7,0.7v29.6C395.3,399.2,395.6,399.6,396,399.6z"/>
				<path class="st0" d="M396,407.4c0.4,0,0.7-0.3,0.7-0.7v-2.9c0-0.4-0.3-0.7-0.7-0.7s-0.7,0.3-0.7,0.7v2.9
					C395.3,407,395.6,407.4,396,407.4z"/>
				<path class="st0" d="M418.3,374.3c-0.4,0-0.7,0.3-0.7,0.7s0.3,0.7,0.7,0.7h2.8c0.4,0,0.7-0.3,0.7-0.7s-0.3-0.7-0.7-0.7H418.3z"
					/>
				<path class="st0" d="M401.9,374.3c-0.4,0-0.7,0.3-0.7,0.7v12.1c0,0.4,0.3,0.7,0.7,0.7s0.7-0.3,0.7-0.7v-11.3h10.9
					c0.4,0,0.7-0.3,0.7-0.7s-0.3-0.7-0.7-0.7H401.9z"/>
			</g>
		</g>
	</g>
	<g class="st3">
		<text transform="matrix(1 0 0 1 50.4551 47.7168)" class="st0 st2 st10">CORPORATE DEVELOPMENT</text>
		<path class="st5" d="M457.4,56.8H39.1c-0.3,0-0.5-0.2-0.5-0.5s0.2-0.5,0.5-0.5h418.3c0.3,0,0.5,0.2,0.5,0.5S457.6,56.8,457.4,56.8
			z"/>
		<text transform="matrix(1 0 0 1 184.6221 74.5)" class="st1 st2 st9">FLAT LINE ICONS</text>
	</g>
</g>
</svg>
