<?xml version="1.0" standalone="no"?><!-- Generator: Gravit.io --><svg xmlns="http://www.w3.org/2000/svg" xmlns:xlink="http://www.w3.org/1999/xlink" style="isolation:isolate" viewBox="1225.35 495.3 64.1 64" width="64.1px" height="64px"><defs><clipPath id="_clipPath_u1AXEHPTkNlsOlYWyybGq4stKPyGTgRo"><rect x="1225.35" y="495.3" width="64.1" height="64"/></clipPath></defs><g clip-path="url(#_clipPath_u1AXEHPTkNlsOlYWyybGq4stKPyGTgRo)"><g><g><path d=" M 1268.65 524.1 C 1268.65 522.3 1268.35 520.6 1267.75 519.3 C 1266.05 519.2 1263.75 519.4 1261.05 520 C 1253.65 521.8 1247.95 520.4 1246.75 520.1 C 1246.35 521.3 1246.15 522.6 1246.15 524.1 C 1246.15 528.9 1248.35 533.2 1251.65 535.5 L 1251.15 538.4 C 1250.75 540 1249.65 541.3 1248.25 541.9 L 1257.45 545.6 L 1266.65 541.9 C 1265.25 541.3 1264.15 540 1263.75 538.4 L 1263.25 535.5 C 1266.45 533.1 1268.65 528.9 1268.65 524.1 Z " fill="rgb(84,192,241)"/><circle vector-effect="non-scaling-stroke" cx="1285.7500007629396" cy="517.0000022888183" r="2.900000000000091" fill="rgb(84,192,241)"/><circle vector-effect="non-scaling-stroke" cx="1285.7500007629396" cy="531.7000022888183" r="2.900000000000091" fill="rgb(84,192,241)"/></g><g><circle vector-effect="non-scaling-stroke" cx="1237.7500007629396" cy="510.7000022888184" r="2.900000000000091" fill="rgb(255,98,93)"/><path d=" M 1249.75 549.3 L 1257.35 545.5 L 1248.15 541.9 L 1249.75 549.3 Z " fill="rgb(255,98,93)"/><path d=" M 1257.35 545.5 L 1264.95 549.3 L 1266.65 541.9 L 1257.35 545.5 Z " fill="rgb(255,98,93)"/></g><g><path d=" M 1286.45 528.1 L 1286.45 520.6 C 1288.15 520.3 1289.35 518.8 1289.35 517 C 1289.35 515 1287.75 513.3 1285.65 513.3 C 1283.65 513.3 1281.95 514.9 1281.95 517 C 1281.95 518.8 1283.25 520.2 1284.85 520.6 L 1284.85 523.6 L 1271.55 523.6 C 1271.15 523.6 1270.85 523.9 1270.85 524.3 C 1270.85 524.7 1271.15 525 1271.55 525 L 1284.95 525 L 1284.95 528 C 1283.25 528.3 1282.05 529.8 1282.05 531.6 C 1282.05 533.6 1283.65 535.3 1285.75 535.3 C 1287.75 535.3 1289.45 533.7 1289.45 531.6 C 1289.35 529.9 1288.15 528.4 1286.45 528.1 Z  M 1283.55 517 C 1283.55 515.8 1284.55 514.8 1285.75 514.8 C 1286.95 514.8 1287.95 515.8 1287.95 517 C 1287.95 518.2 1286.95 519.2 1285.75 519.2 C 1284.45 519.2 1283.55 518.3 1283.55 517 Z  M 1285.75 533.9 C 1284.55 533.9 1283.55 532.9 1283.55 531.7 C 1283.55 530.5 1284.55 529.5 1285.75 529.5 C 1286.95 529.5 1287.95 530.5 1287.95 531.7 C 1287.95 532.9 1286.95 533.9 1285.75 533.9 Z " fill="rgb(26,23,27)"/><path d=" M 1262.45 511.7 C 1262.85 511.7 1263.15 511.4 1263.15 511 L 1263.15 507.1 L 1275.85 507.1 C 1276.25 507.1 1276.55 506.8 1276.55 506.4 C 1276.55 506 1276.25 505.7 1275.85 505.7 L 1262.45 505.7 C 1262.05 505.7 1261.75 506 1261.75 506.4 L 1261.75 511.1 C 1261.75 511.4 1262.05 511.7 1262.45 511.7 Z " fill="rgb(26,23,27)"/><path d=" M 1234.15 510.7 C 1234.15 512.5 1235.45 514 1237.05 514.3 L 1237.05 520 C 1237.05 520.4 1237.35 520.7 1237.75 520.7 L 1244.15 520.7 C 1244.55 520.7 1244.85 520.4 1244.85 520 C 1244.85 519.6 1244.55 519.3 1244.15 519.3 L 1238.45 519.3 L 1238.45 514.3 C 1240.15 514 1241.35 512.5 1241.35 510.7 C 1241.35 508.9 1240.05 507.4 1238.45 507.1 L 1238.45 502.6 C 1239.85 502.3 1241.05 501.2 1241.35 499.7 L 1247.55 499.7 C 1247.95 499.7 1248.25 499.4 1248.25 499 C 1248.25 498.6 1247.95 498.3 1247.55 498.3 L 1241.35 498.3 C 1241.05 496.6 1239.55 495.4 1237.75 495.4 C 1235.75 495.4 1234.05 497 1234.05 499.1 C 1234.05 500.9 1235.35 502.4 1236.95 502.7 L 1236.95 507.2 C 1235.35 507.4 1234.15 508.9 1234.15 510.7 Z  M 1235.55 498.9 C 1235.55 497.7 1236.55 496.7 1237.75 496.7 C 1238.95 496.7 1239.95 497.7 1239.95 498.9 C 1239.95 500.1 1238.95 501.1 1237.75 501.1 C 1236.55 501.1 1235.55 500.1 1235.55 498.9 Z  M 1237.75 508.5 C 1238.95 508.5 1239.95 509.5 1239.95 510.7 C 1239.95 511.9 1238.95 512.9 1237.75 512.9 C 1236.55 512.9 1235.55 511.9 1235.55 510.7 C 1235.55 509.5 1236.55 508.5 1237.75 508.5 Z " fill="rgb(26,23,27)"/><path d=" M 1244.95 527.1 C 1244.95 526.7 1244.65 526.4 1244.25 526.4 L 1229.05 526.4 C 1228.65 526.4 1228.35 526.7 1228.35 527.1 L 1228.35 533.5 C 1228.35 533.9 1228.65 534.2 1229.05 534.2 C 1229.45 534.2 1229.75 533.9 1229.75 533.5 L 1229.75 527.9 L 1244.15 527.9 C 1244.55 527.8 1244.95 527.5 1244.95 527.1 Z " fill="rgb(26,23,27)"/><path d=" M 1271.05 550.7 C 1270.65 550.7 1270.35 551 1270.35 551.4 L 1270.35 558.5 C 1270.35 558.9 1270.65 559.2 1271.05 559.2 C 1271.45 559.2 1271.75 558.9 1271.75 558.5 L 1271.75 551.4 C 1271.75 551 1271.45 550.7 1271.05 550.7 Z " fill="rgb(26,23,27)"/><path d=" M 1243.65 550.7 C 1243.25 550.7 1242.95 551 1242.95 551.4 L 1242.95 558.5 C 1242.95 558.9 1243.25 559.2 1243.65 559.2 C 1244.05 559.2 1244.35 558.9 1244.35 558.5 L 1244.35 551.4 C 1244.45 551 1244.05 550.7 1243.65 550.7 Z " fill="rgb(26,23,27)"/><path d=" M 1274.45 542.6 L 1267.95 541.5 C 1266.25 541.2 1264.75 539.9 1264.35 538.2 L 1263.75 535.9 C 1267.05 533.4 1269.35 529.1 1269.35 524.1 C 1269.35 517 1264.55 512.2 1257.35 512.2 C 1250.15 512.2 1245.35 517 1245.35 524.1 C 1245.35 529.1 1247.55 533.4 1250.95 535.9 L 1250.35 538.2 C 1249.95 539.9 1248.55 541.2 1246.75 541.5 L 1240.25 542.6 C 1236.15 543.3 1233.15 546.9 1233.15 551 L 1233.15 558.5 C 1233.15 558.9 1233.45 559.2 1233.85 559.2 C 1234.25 559.2 1234.55 558.9 1234.55 558.5 L 1234.55 551 C 1234.55 547.5 1237.05 544.6 1240.45 544 L 1246.95 542.9 C 1247.15 542.9 1247.35 542.8 1247.55 542.8 L 1249.05 549.4 C 1249.05 549.6 1249.25 549.8 1249.45 549.9 C 1249.55 549.9 1249.65 550 1249.75 550 C 1249.85 550 1249.95 550 1250.05 549.9 L 1252.75 548.6 L 1254.45 551.5 L 1252.75 558.3 C 1252.65 558.7 1252.85 559.1 1253.25 559.2 C 1253.35 559.2 1253.35 559.2 1253.45 559.2 C 1253.75 559.2 1254.05 559 1254.15 558.6 L 1255.75 552 L 1258.95 552 L 1260.55 558.6 C 1260.65 559 1261.05 559.2 1261.45 559.1 C 1261.85 559 1262.05 558.6 1261.95 558.2 L 1260.25 551.4 L 1261.95 548.5 L 1264.65 549.8 C 1264.75 549.9 1264.85 549.9 1264.95 549.9 C 1265.05 549.9 1265.15 549.9 1265.25 549.8 C 1265.45 549.7 1265.65 549.5 1265.65 549.3 L 1267.15 542.7 C 1267.35 542.8 1267.55 542.8 1267.75 542.8 L 1274.25 543.9 C 1277.65 544.5 1280.15 547.4 1280.15 550.9 L 1280.15 558.4 C 1280.15 558.8 1280.45 559.1 1280.85 559.1 C 1281.25 559.1 1281.55 558.8 1281.55 558.4 L 1281.55 550.9 C 1281.55 546.9 1278.55 543.3 1274.45 542.6 Z  M 1257.35 513.6 C 1261.55 513.6 1264.85 515.4 1266.55 518.5 C 1264.85 518.5 1262.85 518.8 1260.95 519.3 C 1254.75 520.8 1249.75 520 1247.75 519.6 C 1249.25 515.8 1252.65 513.6 1257.35 513.6 Z  M 1246.85 524.1 C 1246.85 523 1246.95 521.9 1247.25 521 C 1249.35 521.5 1254.65 522.4 1261.25 520.7 C 1263.35 520.2 1265.45 519.9 1267.15 520 C 1267.55 521.2 1267.85 522.6 1267.85 524.1 C 1267.85 531 1263.15 536.6 1257.35 536.6 C 1251.55 536.6 1246.85 531 1246.85 524.1 Z  M 1251.85 538.5 L 1252.35 536.7 C 1253.95 537.6 1255.65 538.1 1257.45 538.1 C 1259.25 538.1 1261.05 537.6 1262.55 536.7 L 1263.05 538.5 C 1263.35 539.8 1264.15 540.9 1265.05 541.7 L 1257.45 544.7 L 1249.85 541.7 C 1250.75 540.9 1251.45 539.8 1251.85 538.5 Z  M 1250.35 548.2 L 1249.25 543 L 1255.65 545.6 L 1250.35 548.2 Z  M 1259.15 550.7 L 1255.65 550.7 L 1254.05 548 L 1257.35 546.4 L 1260.65 548 L 1259.15 550.7 Z  M 1264.45 548.2 L 1259.15 545.6 L 1265.55 543 L 1264.45 548.2 Z " fill="rgb(26,23,27)"/><path d=" M 1285.75 537.8 C 1285.35 537.8 1285.05 538.1 1285.05 538.5 L 1285.05 548.6 C 1285.05 549 1285.35 549.3 1285.75 549.3 C 1286.15 549.3 1286.45 549 1286.45 548.6 L 1286.45 538.5 C 1286.45 538.1 1286.15 537.8 1285.75 537.8 Z " fill="rgb(26,23,27)"/><path d=" M 1285.75 551.8 C 1285.35 551.8 1285.05 552.1 1285.05 552.5 L 1285.05 555.5 C 1285.05 555.9 1285.35 556.2 1285.75 556.2 C 1286.15 556.2 1286.45 555.9 1286.45 555.5 L 1286.45 552.5 C 1286.45 552.2 1286.15 551.8 1285.75 551.8 Z " fill="rgb(26,23,27)"/><path d=" M 1229.05 549.7 C 1228.65 549.7 1228.35 550 1228.35 550.4 L 1228.35 558.6 C 1228.35 559 1228.65 559.3 1229.05 559.3 C 1229.45 559.3 1229.75 559 1229.75 558.6 L 1229.75 550.4 C 1229.75 550 1229.45 549.7 1229.05 549.7 Z " fill="rgb(26,23,27)"/><path d=" M 1229.05 542.5 C 1228.65 542.5 1228.35 542.8 1228.35 543.2 L 1228.35 546.5 C 1228.35 546.9 1228.65 547.2 1229.05 547.2 C 1229.45 547.2 1229.75 546.9 1229.75 546.5 L 1229.75 543.2 C 1229.75 542.8 1229.45 542.5 1229.05 542.5 Z " fill="rgb(26,23,27)"/></g><g><path d=" M 1229.05 532.7 C 1227.05 532.7 1225.35 534.3 1225.35 536.4 C 1225.35 538.5 1226.95 540.1 1229.05 540.1 C 1231.05 540.1 1232.75 538.5 1232.75 536.4 C 1232.75 534.3 1231.05 532.7 1229.05 532.7 Z " fill="rgb(84,192,241)"/><path d=" M 1250.45 495.3 C 1248.45 495.3 1246.75 496.9 1246.75 499 C 1246.75 501.1 1248.35 502.7 1250.45 502.7 C 1252.55 502.7 1254.15 501.1 1254.15 499 C 1254.15 496.9 1252.55 495.3 1250.45 495.3 Z " fill="rgb(84,192,241)"/></g><path d=" M 1278.85 502.6 C 1276.85 502.6 1275.15 504.2 1275.15 506.3 C 1275.15 508.4 1276.75 510 1278.85 510 C 1280.85 510 1282.55 508.4 1282.55 506.3 C 1282.55 504.2 1280.85 502.6 1278.85 502.6 Z " fill="rgb(255,98,93)"/></g></g></svg>