<svg xmlns="http://www.w3.org/2000/svg" viewBox="0 0 765 900" width="765" height="900">
	<style>
		tspan { white-space:pre }
		.shp0 { fill: #1d9d00 } 
		.shp1 { fill: #174000 } 
		.shp2 { fill: #921d00 } 
		.shp3 { fill: #3a0000 } 
		.shp4 { fill: #3b0000 } 
	</style>
	<g id="layer1">
		<path id="path4224" class="shp0" d="M343.71,520.19c3.93,1.57 -43.18,31.77 -52.81,28.9c-10.56,3.53 -47.88,-32.42 -47.88,-32.42l-48.59,9.16c-43.14,-6.34 -62.6,-26.22 -93.65,-39.47c-7.17,-20.84 -16.3,-41.49 -3.52,-64.14c-93.74,-32.68 -57.08,-75.24 -30.98,-117.01c-14.36,-35.51 -11.64,-63.14 33.8,-93.05c14.2,-30.4 7.16,-83.98 88.02,-85.29c34.76,-26.26 61.76,-75.81 111.96,-55.69c93.09,-67.87 109.92,-20.8 136.61,4.23c90.4,-30.84 98.06,21.24 131.68,40.18c106.96,-7.98 102.3,27.16 105.62,59.21c-0.94,20.52 -6.33,44.01 19.72,46.52c34.11,38.37 28.3,70.58 14.08,101.5c30.5,85.53 -8.91,92.67 -20.42,131.11c-7.43,37.41 -29.75,53.14 -57.74,60.62l-32.39,14.8c-42.89,-1 -61.94,-6.77 -87.32,-11.28c-50.42,31.28 -62.84,12.63 -85.2,7.05z" />
		<path id="path4163" class="shp1" d="M380.69,28.99c16.99,1.42 36.19,10.78 46.3,27.82c10.45,21.32 21.57,13.46 39.66,5.17c40.67,-13.7 79.74,15.24 102.78,46.5c34.61,-1.41 86.24,-3.9 106.15,26.78c23.7,24 -18.18,76.63 19.17,84.56c32.38,22.92 35.47,68.92 23.93,102.03c14.95,36.7 16.72,88.3 -11.42,119.12c-20.95,21.72 -29.28,75.25 -68.91,75.58c-26.97,4.76 -42.4,25.25 -73.47,21.42c-31.43,-4.61 -57.62,-17.93 -86.08,4.51c-23.85,10.66 -52.83,0.02 -63.88,-27.97c-13.15,0.8 -40.38,2.31 -53.52,3.11c-24.27,5.27 -36.83,29.74 -62.12,34.31c-31.41,16.72 -41.15,-35.73 -65.18,-30.37c-35.48,14.37 -76.49,9.37 -103.83,-9.82c-34.21,-6.25 -50.28,-51.12 -38.78,-85.45c-27.75,-10.12 -63.85,-33.81 -63.29,-64.32c-2.97,-25.33 20.39,-46.32 33.76,-58.33c1.23,-6.38 -7.68,-20.77 -10.99,-27.89c-9.92,-38.7 39.04,-51.54 44.84,-79.16c1.92,-29.39 13.17,-68.05 47.81,-71.11c31.3,4.89 56.7,-5.02 70.12,-34.84c17.16,-27.07 52.61,-39.18 82.07,-25.03c23.12,-8.01 52.75,-44.1 84.87,-36.61zM373.87,42.14c-27.68,-2.44 -55.8,10.81 -71.22,34.79c-21.81,-12.06 -45.77,-8.5 -64.27,12.45c-17.04,14.97 -30.12,33.99 -52.72,41.39c-27.1,1.28 -62.48,2.33 -68.87,38.81c-10.81,21.12 3.78,54.46 -27.94,60.14c-27.63,14.67 -29.31,49.96 -17.32,75.5c-20.92,23.14 -32.43,60.81 -13.02,88.31c4.05,15.81 22.3,14.16 31.72,22.31c0.75,0.65 8.83,-18.98 17.14,-27.05c12.66,-12.3 31.71,-27.38 37.33,-31.27c8.46,-5.85 63.3,-20.42 65.23,-12.65c-2.34,4.25 -40.59,13.12 -45.26,15.13c-12.4,5.34 -43.17,25.4 -54.14,41.99c-6.89,10.42 -11.97,28.79 -12.53,30.33c-12.24,33.89 18.91,57.46 49.07,61.24c18.09,22.08 49.51,30.14 76.96,20.54c2.1,-1.6 -16.24,-5.23 -21.95,-13.62c-9.93,-14.6 -17.79,-57.98 -12.12,-58.39c5.65,-0.41 12.75,36.81 23.7,47.55c15.94,15.63 31.85,18.84 33.25,19.61c10.44,5.7 15.53,23.58 27.67,29.11c29.92,5.17 56.75,-15.84 82.48,-28.38c17.83,-2.78 36.59,-2.43 54.77,-4.04c13.37,10.26 28.99,31.14 55.11,14.64c22.55,-4.21 44.19,-30.11 66.92,-11.2c27.95,14.81 75.21,24.77 94.12,-0.19c24.77,-5.17 38.75,-23.07 44.88,-48.86c0.27,-1.12 -27.17,19.02 -42.79,12.84c-24.83,-9.83 -76.86,-55.19 -65.29,-61.33c6.67,6.38 39.01,42.03 64.91,48.01c12.66,2.92 47.53,-14.05 51.12,-18.11c21.37,-22.46 41.73,-50.13 34.14,-82.34c-13.53,-26.21 -14.15,-53.34 -8.94,-80.32c4.15,-29.84 0.34,-53.75 -28.46,-58.89c-0.69,-0.06 -8.56,36.13 -36.31,48.9c-29.2,13.44 -98.81,-10.58 -103.49,-50.9c20.45,28.05 68.85,50.79 97.91,36.39c17.14,-8.49 32.96,-36.75 32.21,-42.44c-1.79,-13.47 7.78,-41.65 -1.6,-52.97c-6.54,-41.02 -57.45,-40.08 -94.95,-37.12c-22.14,-0.51 -32.91,-31.56 -55.89,-37.37c-27.96,-17.46 -58.85,-19.62 -82.06,0.03c-3.08,-26.57 -18.34,-34.48 -43.26,-35.45z" />
		<path id="path4172" class="shp1" d="M211.32,188.18c1.99,-3.84 24.86,0.57 48.83,10.95c22.14,9.58 45.02,25.08 58.08,24.54c27.82,-1.16 44.67,-20.31 58.83,-33.84c13.14,-12.55 24.45,-19.58 27.91,-19.97c-2.11,6.34 4.48,6.79 -19.01,25.38c-57.57,45.53 -48.65,69.1 -113.37,18.33c-28.86,-22.65 -47.88,-4.23 -61.26,-25.38z" />
		<path id="path4203" class="shp1" d="M487.69,235.2c-11.64,15.89 -18.99,35.95 -33.6,43.74c-16.41,8.74 -39.92,7.83 -58.01,1.36l-2.22,0.29l-0.89,2.07c-15.06,35.2 -42.49,52.52 -69.55,51.56c-27.05,-0.97 -55.12,-15.61 -71.83,-34.45c-15.33,-12.43 -13.52,-11.25 -6.4,2.75c18.24,20.57 48.29,38.53 77.93,39.59c29.04,1.04 63.04,-13.39 79.39,-49.38c23.72,7.58 44.26,6.05 62.41,-4.61c13.79,-8.1 18.52,-37.6 29.61,-52.74c6.36,-9.52 13.86,-19.88 6.09,-19.11z" />
		<path id="path4222-3" class="shp2" d="M346.87,835.42c-29.15,-4.68 -43.91,9.85 -65.73,14.95l-4.48,-12.96c23.89,-22.8 48.17,-44.03 74.69,-56.32c7.75,-47.04 11.5,-97.51 9.96,-152.52c1.13,-42.05 3.62,-85.25 -11.95,-113.14l-108.55,-56.82l-20.41,-17.94l-3.49,-14.95c-0.26,-14.03 5.08,-8.45 9.96,-4.49c29.19,43.4 74.07,43.94 79.17,39.87l-3.98,-27.91l16.43,-6.98c6.73,18.27 11.68,37.73 29.88,48.35c14.06,15.4 21.72,9.44 27.88,-1.5l6.97,-12.96v-30.4c5.83,-5.66 14.13,-20.92 9.96,10.97c1.39,17.97 6.13,28.11 11.45,36.88c9.84,1.76 12.27,9.58 35.35,0.5l58.75,-18.94c25.73,-5.24 37.16,-21.49 45.81,-39.87l11.95,6.48c-3.49,10.13 -4.48,20.27 -15.44,30.41c-26.5,21.85 -44.03,25.75 -66.72,34.89c-51.41,10.63 -45.83,21.27 -62.74,31.9c-4.27,61.81 3.21,107.15 4.98,160.49c3.47,36 9.92,67.51 15.93,99.69c3.82,9.55 21.65,20.03 45.31,30.9l27.39,21.93c5.99,11.87 9.48,22.17 -5.48,20.93l-42.32,-26.42l-6.97,12.46c-0.5,7.31 -3.99,14.62 -12.45,21.93c-11.12,2.04 -11.12,-5.46 -13.44,-10.97l-10.95,-16.95c-13.99,-8.65 -16.03,-1.35 -22.9,-0.5l-10.95,16.95c-5.78,3.7 -7.75,14.09 -23.4,0.5z" />
		<path id="path4136" class="shp3" d="M379.58,432.06c4.05,-17.46 9.7,-12.54 15.78,-4.12l0.72,10.99c-1.04,24.72 1.46,15.51 11.09,35.78c2.69,1.91 10.13,4.26 12.42,4.34c2.83,0.09 10.15,-1.04 14.14,-1.64c7.22,-1.09 16.87,-4.05 26.01,-7.69c18.52,-7.39 35.85,-9.86 49.4,-17.16c9.03,-4.89 30.6,-22.65 32.15,-35.33c3.34,-5.57 5.01,-2.35 13.66,1.36c4.01,4.72 6.68,6.19 1.05,13.52c-5.8,12.29 -4.03,17.56 -15.14,27.04c-11.11,9.48 -23.59,21.65 -39.42,26.87c-24.04,7.92 -46.21,15.24 -63.28,25.08c-7.52,4.33 -15.45,11.66 -20.44,15.84c-1.1,8.35 -3.52,17.22 -2.79,39.35c0.76,23.42 0.73,52.15 3.11,80.39c2.39,28.25 7.2,62.78 10.54,85.95c3.3,22.88 8.03,38.32 12.14,44.77c13.66,21.46 24,26.31 43.14,37.45c8.58,5 17.38,9.6 25.2,23.06c1.25,8.15 3.15,13.64 2.48,19.88c-9.18,2.58 -14.49,2.66 -17.1,1.37c-14.16,-6.99 -31.85,-20.4 -33.09,-20.25c-7.46,0.43 -6.71,3.76 -7.58,10.78c-0.7,5.64 -4.77,6.6 -7.11,10.77c-2.74,4.89 -11.96,10.48 -16.16,10.23c-4.2,-0.25 -8.55,-9.23 -10.9,-13.32c-2.71,-5.42 -0.14,-8.65 -1.02,-12.22c-2.47,-7.24 -7.33,-3.32 -16.56,-4.96c-9.91,3.99 -13.71,-2.05 -17.18,7.08c-1.31,3.61 0.65,8.28 -1.87,10.51c-2.52,2.23 -5.58,4.29 -9.21,5.66c-3.63,1.37 -8.17,2.14 -12.72,0.21c-4.55,-1.92 -13.41,-4 -13.13,-9.65c0.32,-6.5 -4.01,-9.71 -5.72,-12.75c-2.22,-2.04 -4.45,1.2 -11.08,-2.64c-1.86,-0.07 -2.69,3.62 -7.49,4.23c-8.67,1.11 -4.34,-1.24 -11.1,2.38c-7.6,3.62 -5.36,-2.8 -13.82,2.14c-2.84,4.64 -12.13,5.68 -18.58,10.48c-4.01,-0.78 -7.73,-13.59 -7.24,-18.9c0.49,-6.56 13.18,-13.34 16.53,-18.71c7.39,-6.98 10.83,-12.18 17.57,-16.85c3.92,-3.04 8.4,-7.63 18.14,-12.4c13.48,-6.88 8.16,-5.23 17.97,-15.57c1.89,-4.17 5.15,-13.31 6.47,-21.66c2.63,-16.69 3.63,-30.71 4.35,-57.3c1.27,-47.27 4.96,-149.54 -3.57,-165.38c-5.79,-10.75 -17.31,-21.17 -31.72,-26.59c-15.43,-5.8 -32.62,-17.51 -49.82,-24.05c-17.2,-6.54 -27.04,-14.77 -39.86,-24.36c-12.02,-8.99 -16.24,-17.86 -16.22,-36.46c3,-5.79 5.49,-10.2 15.46,1.58c7.69,11.53 9.13,14.42 23.83,24.08c7.13,3.88 22.75,14.78 37.86,15.16c17.93,0.56 10.14,-6.86 8.86,-13.97c-1.41,-7.83 1.49,2.84 1,-6.46l-0.77,-14.64c-0.41,-7.85 11.1,-11.47 17.58,-0.58c6.08,10.22 4.06,-0.85 8.44,10.72c5.39,13.79 13.54,26.23 26.32,37.33c5.97,3.56 9.8,4.55 11.26,4.33c1.31,-0.19 5.88,-0.79 7.96,-3.64c10.54,-8.2 10.14,-13.57 9.05,-41.47zM383.59,439.11c0,0 0,0 0,0c0,0 0,0 0,0zM383.59,439.11c1.81,19.39 4.41,25.83 -7.39,42.38c-4.08,5.72 -4.31,6.28 -11.64,9.49c-6.86,0.99 -13.43,-5.23 -21.13,-10l-12.75,-15.94c-9.78,-12.23 -7.36,-12.02 -12.25,-28.01c-2.97,-7.67 -1.66,4.93 -4.29,-2.44c-6.14,-17.25 -10.02,-10 -8.55,3.13c0.87,7.79 -1.75,-4.21 -0.72,3.98c0.69,5.48 1.78,14.37 4.08,20.56c2.7,10.59 13.29,17.63 19.98,19.39c-6.92,7.21 -26.22,-14.47 -28.09,-14.13c-6.55,0.75 -17.87,-1.05 -24.34,-3.65c-15.46,-6.22 -19.86,-9.44 -27.95,-12.51c-7.39,-2.8 -17.9,-12.62 -23.66,-25.26c-3.05,-4.47 -4.78,-4.38 -5.5,-0.5c2.39,7.19 4.12,16.05 12.4,22.18c10.98,8.12 24.27,16.18 40.98,22.54c16.72,6.36 33.34,16.06 49.26,22.04c15.45,5.91 34.47,15.82 38.26,39.68c3.85,24.26 7.74,87.65 5.88,133.83c-1.22,30.13 0.06,67.96 -2.79,86.06c-1.43,9.05 -0.78,18.14 -3.56,24.27c-2.79,6.13 -6.46,16.28 -12.33,16.53c-11.57,1.6 -24.65,11.54 -34.63,18.81c-8.12,5.91 -16.91,15 -19.94,17.36c-1.99,2.07 -8.27,7.93 -9.69,12.37c-0.81,5.88 1.91,7.08 7.71,2.2c3.36,-2 3.35,0.51 14.54,-4.86c12.96,-6.23 8.3,-4.81 16.64,-5.87c6.43,-0.82 13.27,-2.82 16.94,-2.38c1.45,-0.03 5.29,1.68 7.62,-0.81c2.88,-3.07 6.62,-9.89 9.69,-13.55c2.93,-3.49 6.78,-0.75 12.49,-5.56c8.45,-7.12 16.25,-18.91 16.78,-17.82c0.39,0.34 -7.15,12.29 -14.86,19.64c-5.23,4.99 -11.35,5.71 -12.01,7.58c-2.18,6.13 -5.06,13.17 -5.07,14.03c-0.02,1.5 -0.47,3.21 -0.62,5.34c-0.75,5.4 2.7,7.33 2.95,9.13c0.24,1.79 6.05,1.6 7.59,7.16c1.98,4.23 3.41,6.1 10.62,-1.49c2.61,-4.97 3.43,-10.28 7.14,-16.73c6.88,-9.47 10.53,-4.49 21.08,-10.49c10.79,7.93 20.87,2.83 25.85,16.33c0.46,3.68 -4.4,16.94 4.77,18.11c8.76,-0.32 10.61,-5.7 11.98,-10.36c2.32,-7.87 0.27,-10.38 1.79,-15.25c0.98,-3.15 1.63,-4.99 -1.98,-8.06c-3.78,-3.22 -3.89,-5.79 -6.7,-8.7c-5.05,-5.23 -19.38,-8.33 -18.45,-10.32c1.3,-2.79 16.48,5.55 21.11,7.61c4.3,1.91 11.02,6.89 11.63,7.14c6.03,2.5 10.3,4.69 15.31,9.56c2.79,2.71 10.44,9.99 15.62,12.46c9.17,4.38 20.13,16.19 23.03,5.66c0.77,-8.59 -9.82,-20.92 -17.05,-25.06c-17.79,-10.18 -48.46,-20.89 -57.59,-31.52c-5.47,-6.37 -9.62,-18.91 -12.57,-26.47c-3.85,-9.87 -1.67,-18.43 -4.43,-37.6c-3.4,-23.57 -3.46,-47.99 -5.87,-76.46c-2.41,-28.46 -4.15,-57.96 -4.93,-81.7c-0.78,-23.74 -0.72,-42.77 1.03,-53.26c1.89,-4.4 4.27,-4.35 11.68,-12.51c19.67,-17.77 50.58,-15.08 79.78,-29.01c14.6,-6.97 31.82,-15.49 41.35,-23.4c11.74,-9.75 14.01,-23.23 16.29,-29.55c-4.5,-0.83 -9.9,-5.7 -11.93,4.62c-1.83,3.45 -4.57,10.18 -7.7,12.97c-5,4.44 -17.83,13.93 -25.16,17.88c-14.66,7.89 -27.29,9.42 -45.86,16.82c-5.22,2.08 -19.85,4.47 -29.45,9.24c-4.8,2.38 -12.74,3.76 -18.79,3.57c-6.04,-0.19 -8.4,0.82 -14.01,-4.11l-1.68,-1.48l-0.51,-2.17c-6.18,-25.04 -9.36,-23.08 -8.78,-46.84c-2.2,-6.99 -4.41,-6.08 -6.61,4.21z" />
		<path id="path4178" class="shp4" d="M386.49,514.22c-8.38,7.7 -14.98,20.64 -16.48,31.93c-0.78,5.88 6.57,13.46 6.9,22.65c0.46,12.94 -8.25,24.77 -4.99,37.3c2.38,9.14 7.37,19.25 7.51,28.22c0.08,5.35 -1.17,17.42 -7.69,27.75c3.17,2.3 11.59,-16.71 12.46,-25.52c0.65,-9.29 -7.82,-23.76 -8.35,-33.06c-0.73,-12.87 6.22,-24.66 6.28,-32.74c0.07,-8.36 -8.47,-18.25 -7.33,-26.54c1.28,-9.3 7.81,-18.15 13.61,-25.52c4.9,-6.23 20.77,-11.79 19.19,-14.28c0,0 -15.4,4.57 -21.12,9.82z" />
		<path id="path4178-4" class="shp4" d="M401.44,709.03c5.33,-7.65 8.47,-19.37 7.93,-28.94c-0.29,-4.99 -7.14,-10.14 -8.79,-17.69c-2.32,-10.64 2.63,-21.76 -1.8,-31.63c-3.23,-7.2 -8.64,-14.81 -10.1,-22.21c-0.88,-4.41 -1.74,-14.6 1.74,-24.15c-2.81,-1.42 -6.44,15.6 -5.78,23.03c0.9,7.79 9.67,18.47 11.49,26.09c2.52,10.54 -1.07,21.36 0.1,28.06c1.22,6.93 9.34,13.81 9.71,20.84c0.42,7.89 -3.3,16.21 -6.67,23.2c-2.85,5.9 -14.31,12.93 -12.7,14.75c0,0 11.24,-6.13 14.87,-11.36z" />
		<path id="path4178-48" class="shp4" d="M342.27,804.47c9.32,-4.02 30.25,-10.18 33.27,-17.75c1.57,-3.95 -4.67,-10.33 -3.75,-16.74c1.3,-9.02 11.5,-15.84 9.97,-25.02c-1.12,-6.69 -4.67,-14.46 -3.59,-20.68c0.65,-3.71 3.51,-11.87 11.34,-18c-2.82,-2.09 -13.7,9.75 -15.75,15.71c-1.9,6.32 4.5,17.65 3.77,24.16c-1.02,9.02 -9.47,16.09 -10.63,21.66c-1.2,5.77 5.89,13.94 3.65,19.49c-2.52,6.23 -22.84,9.57 -29.56,13.77c-5.68,3.54 -34.07,23.25 -32.85,25.21c0,0 27.79,-19.09 34.15,-21.83z" />
		<path id="path4178-8" class="shp4" d="M384.21,763.45c-3.84,8.26 -3.7,18.5 0.17,25.36c2.02,3.58 11.98,4.13 16.5,8.97c6.36,6.82 4.13,17.47 12.77,22.7c6.3,3.81 15.35,6.89 19.59,11.7c2.53,2.87 6.99,10.04 6,18.83c3.86,-0.29 2.52,-14.71 -0.77,-19.93c-3.7,-5.37 -17.82,-9.13 -22.56,-13.93c-6.57,-6.64 -5.87,-16.43 -9.53,-20.85c-3.79,-4.58 -15.86,-5.81 -18.67,-10.87c-3.15,-5.68 -1.47,-13.66 0.25,-20.49c1.45,-5.77 12.87,-16.5 10.33,-17.09c0,0 -11.45,9.97 -14.08,15.6z" />
		<path id="path4174" class="shp1" d="M260.9,368.88c-6.23,-12.32 -17.81,-17.15 -5.96,5.18c0,0 7.31,52.94 30.08,62.42c22.3,9.29 56.26,-25.86 80.38,-24.51c31.06,1.74 51.98,62.36 77.9,48c22.66,-12.55 71.25,-48.37 71.25,-48.37c17.89,-10.83 19.79,-18.28 -4.98,-7.61c0,0 -44.61,41.5 -77.36,37.38c-20.5,-2.58 -44.94,-32.54 -65.03,-37.4c-21.98,-5.32 -45.85,18.06 -67.07,10.24c-18.74,-6.91 -39.21,-45.33 -39.21,-45.33z" />
	</g>
</svg>